<svg width="54" height="53" viewBox="0 0 54 53" fill="none" xmlns="http://www.w3.org/2000/svg">
<path d="M25.004 2.03854C23.494 2.16905 21.8786 2.60626 20.5529 3.24577C20.1929 3.42196 19.4906 3.85917 18.9989 4.2246L18.1034 4.88368L17.287 4.72054C16.5583 4.57698 16.3037 4.5574 14.8024 4.5574C13.2748 4.5574 13.0641 4.57045 12.2827 4.72707C10.0703 5.17733 8.07743 6.14963 6.72541 7.45474C5.77724 8.36832 5.04856 9.60165 4.78518 10.7371C4.58325 11.5789 4.65349 13.145 4.92565 13.915C6.02307 17.0212 9.63138 19.3247 13.8103 19.5792L14.5303 19.6249L15.5223 23.3705C16.0754 25.4326 16.5319 27.1293 16.5407 27.1423C16.5583 27.1488 16.9358 27.0379 17.3923 26.8943C18.9375 26.3984 21.3694 25.9612 23.5379 25.785C24.9689 25.6675 27.8924 25.6871 29.2883 25.8176C31.3427 26.0134 33.6078 26.4571 35.03 26.94C35.39 27.064 35.7148 27.1423 35.7499 27.1162C35.7763 27.0836 36.2328 25.4457 36.7508 23.4749C37.2688 21.4977 37.7253 19.8272 37.7692 19.7489C37.8219 19.6314 37.9272 19.6053 38.5681 19.5727C40.6576 19.4487 42.8173 18.7178 44.4503 17.5759C45.4072 16.9037 45.9691 16.3491 46.5398 15.5399C47.4001 14.3066 47.725 13.1907 47.6547 11.7942C47.6284 11.3244 47.5494 10.7371 47.4704 10.4891C46.9173 8.62281 45.4423 6.9588 43.3704 5.86904C42.5539 5.43835 41.0966 4.93588 40.0694 4.73359C39.2792 4.57698 39.0685 4.5574 37.5409 4.5574C36.0133 4.5574 35.8026 4.57045 35.0388 4.72707L34.2048 4.89673L33.6078 4.41384C32.5104 3.53289 30.8423 2.73025 29.341 2.37134C28.0856 2.06464 26.3034 1.92761 25.004 2.03854ZM27.5851 3.18051C28.9811 3.3567 30.3594 3.80044 31.4217 4.41384C32.0538 4.77274 32.9844 5.5036 33.362 5.93429L33.6517 6.26709L34.117 6.11048C34.3804 6.01912 34.9774 5.87556 35.4514 5.77768C36.6191 5.54928 38.2959 5.53623 39.4548 5.74505C41.079 6.04522 42.3783 6.58032 43.5899 7.44822C46.3027 9.40588 46.9963 12.3881 45.3106 14.9265C43.9498 16.982 41.2282 18.3459 38.1555 18.5221L37.4531 18.5612L36.742 18.2349C35.2144 17.5302 33.1337 16.858 31.4305 16.5252C29.7449 16.199 28.7089 16.1076 26.6545 16.1076C24.6353 16.1076 23.3798 16.212 21.9751 16.4926C21.0972 16.6688 20.7373 16.7797 20.5529 16.9494C20.4475 17.0473 20.4475 17.0734 20.5968 17.1517C20.7285 17.2235 20.9392 17.2365 21.5976 17.1974C22.0629 17.1647 23.5466 17.1452 24.8987 17.1452C27.032 17.1517 27.5061 17.1713 28.4894 17.2953C29.6571 17.4453 30.5701 17.602 31.6588 17.8434C33.2566 18.1958 36.1801 19.1485 36.1801 19.3182C36.1801 19.3965 34.872 24.8518 34.7228 25.4065L34.6789 25.5827L34.2662 25.4652C34.038 25.4 33.362 25.2564 32.7562 25.1455C28.1821 24.2972 22.3614 24.3951 18.1561 25.3804C17.7698 25.4652 17.445 25.5305 17.4274 25.5109C17.4099 25.4979 16.9972 23.9905 16.5144 22.1633C16.0315 20.3362 15.6189 18.7831 15.5926 18.7048C15.5574 18.5743 15.4784 18.5677 14.4776 18.5286C12.5461 18.4568 10.8429 17.9935 9.40311 17.1256C7.84039 16.199 6.86588 15.057 6.31278 13.5365C6.10208 12.9297 6.0494 11.4941 6.22499 10.8807C6.83077 8.81205 8.5164 7.16109 10.9395 6.27362C12.2827 5.7842 13.2924 5.60801 14.8024 5.60801C15.8384 5.60801 16.1632 5.63412 16.8656 5.77768C17.3221 5.86904 17.9191 6.0126 18.1825 6.09743L18.6653 6.25404L19.0692 5.82336C20.6495 4.15282 23.3272 3.10221 26.0488 3.08915C26.4877 3.08263 27.1813 3.12831 27.5851 3.18051Z" fill="black"/>
<path d="M48.1731 7.08929C52.0975 11.7942 49.7885 17.8891 43.1337 20.4145C42.3612 20.7081 40.7897 21.1192 40.1488 21.1975C39.7976 21.2367 39.7888 21.2497 39.6922 21.576C39.6483 21.7587 39.1304 23.7164 38.5421 25.922C37.9627 28.1276 37.4711 29.9483 37.4447 29.9613C37.4272 29.9744 37.234 29.8634 37.0145 29.7199C35.6011 28.741 32.9497 27.9841 29.8155 27.6382C28.4898 27.4947 24.3372 27.4751 22.9237 27.6056C20.3513 27.847 18.016 28.3626 16.3919 29.0543C15.3208 29.5111 15.3647 29.4654 15.5051 30.0005C15.5754 30.2484 15.6544 30.5225 15.6807 30.6008C15.7246 30.7379 15.7597 30.7248 16.3655 30.3855C17.8053 29.5763 20.2548 28.8846 22.8359 28.5714C25.8999 28.1929 30.1842 28.2908 32.8092 28.7867C35.0216 29.2044 36.8916 29.8634 37.9451 30.5943C38.3578 30.8879 38.3666 30.8879 38.4192 30.7379C38.4456 30.6596 38.9723 28.6823 39.5869 26.3527L40.7106 22.1241L41.5271 21.9675C43.4674 21.6021 45.2232 20.9104 46.865 19.8663C48.4189 18.8809 49.9114 17.106 50.5347 15.5072C51.2195 13.7519 51.1405 11.5071 50.3504 9.85612C49.8587 8.83814 48.893 7.56566 48.1292 6.93268C47.857 6.70429 47.857 6.71081 48.1731 7.08929Z" fill="black"/>
<path d="M5.80398 18.6788C7.26135 20.0687 9.56154 21.2629 11.8442 21.8111C12.3007 21.9155 12.6782 22.0068 12.6958 22.0068C12.7045 22.0068 12.6694 21.8437 12.6168 21.6349L12.5202 21.2694L11.6422 21.0933C9.47375 20.656 7.83201 19.9839 6.24295 18.8942C5.63717 18.483 5.55816 18.4374 5.80398 18.6788Z" fill="black"/>
<path d="M7.35834 32.0232C7.30566 32.1211 7.56026 32.2255 13.7497 34.5812C16.0938 35.4752 16.2957 35.5665 16.3221 35.7297C16.3659 35.9907 16.1904 36.1212 15.8567 36.0821C15.7163 36.0625 13.5829 35.4099 11.1247 34.6399C7.93778 33.635 6.62087 33.25 6.55942 33.3022C6.48918 33.3479 6.51552 33.3935 6.62965 33.4588C6.72623 33.511 8.70158 34.2745 11.0193 35.162C13.3459 36.0429 15.3124 36.8129 15.4002 36.8716C15.6812 37.0544 15.488 37.4067 15.1105 37.4067C15.0227 37.4067 12.942 36.7738 10.4838 36.0038C8.03435 35.2337 5.96242 34.5942 5.89219 34.5812C5.82195 34.5747 5.75172 34.6138 5.74294 34.666C5.72538 34.7378 6.98961 35.2468 10.1502 36.454C12.7489 37.4394 14.6276 38.1963 14.6803 38.2681C14.8032 38.4313 14.5662 38.7119 14.3028 38.7119C14.2062 38.7119 12.0992 38.0789 9.63219 37.3023C7.16519 36.5258 5.10205 35.8798 5.04937 35.8602C4.9967 35.8471 4.92646 35.8798 4.90012 35.9385C4.85623 36.0168 6.00632 36.4736 10.5716 38.1637C15.9709 40.167 16.3308 40.291 16.8664 40.3237C17.3931 40.3563 17.4809 40.3367 18.0252 40.1279C18.8768 39.7886 19.509 39.6646 20.2025 39.7103C21.0102 39.7625 21.458 39.906 21.5897 40.1605C21.6862 40.3498 21.7038 40.3628 22.0637 40.3237C22.4061 40.291 22.5993 40.3367 23.8811 40.7674L25.3209 41.2438L24.8029 41.4395C21.7126 42.6011 18.8593 43.4559 14.0921 44.6501C10.2028 45.6289 9.14933 45.916 8.12214 46.288C6.2697 46.9601 6.0151 47.3647 6.79646 48.4545C7.27055 49.1266 7.71829 49.2245 8.9474 48.9178C9.91313 48.6829 11.0281 48.2261 14.7154 46.5751C18.1745 45.0286 19.6933 44.3825 21.4404 43.73C22.9066 43.1884 26.866 41.8441 27.0153 41.8441C27.1733 41.8441 30.887 43.1035 32.5375 43.7169C34.7587 44.5457 35.6278 44.9176 41.3695 47.5083C43.0376 48.2587 44.6969 48.8917 45.3992 49.0483C46.4967 49.2898 46.962 49.1331 47.4712 48.3436C47.9453 47.6127 47.8575 47.2081 47.1376 46.8296C46.2333 46.3402 45.0042 45.9683 41.15 44.9959C37.691 44.1281 35.2064 43.4494 33.5647 42.9274C31.8791 42.3923 28.8063 41.309 28.8063 41.2568C28.8063 41.2307 29.4823 40.9893 30.3075 40.7152C31.5103 40.3171 31.8439 40.2323 31.9844 40.2845C32.2214 40.3824 32.4936 40.291 32.5902 40.0822C32.6868 39.8799 33.2574 39.7103 34.0476 39.645C34.5041 39.6059 34.5041 39.6059 35.0308 39.9713C36.3038 40.8457 38.007 41.0676 40.2458 40.6434C43.5205 40.0235 46.163 38.5552 47.3746 36.6824C48.3754 35.1293 47.8136 33.6611 45.9436 32.9172C45.0481 32.5648 44.2228 32.4343 42.8093 32.4278C40.9306 32.4212 39.4995 32.6953 37.6734 33.4066C34.7675 34.5355 33.3452 35.932 33.4857 37.485L33.5296 37.9875L33.073 38.3073C32.4585 38.738 32.1775 38.8424 31.721 38.7967C31.3699 38.7641 31.3435 38.7706 31.2382 38.9663C31.1328 39.1491 30.887 39.2535 29.0697 39.9126L27.0241 40.6499L25.0224 39.9256C23.9162 39.5275 23.0119 39.1686 23.0119 39.1295C23.0119 39.0838 22.9417 38.9859 22.8539 38.9076C22.7134 38.7771 22.652 38.7641 22.4237 38.8228C22.1954 38.888 22.0989 38.8685 21.7126 38.7119C20.8785 38.3529 20.3079 37.7004 20.1147 36.8847C19.9918 36.3757 19.7284 36.0494 19.2192 35.7884C18.9383 35.6448 7.5866 31.9253 7.42857 31.9253C7.41979 31.9253 7.38468 31.971 7.35834 32.0232ZM44.214 33.002C44.9866 33.1521 45.7416 33.4457 46.1718 33.772L46.5493 34.0591L45.9084 33.896C45.0481 33.6741 43.2746 33.6219 42.1245 33.7785C39.5873 34.1309 36.8657 35.423 35.9702 36.6889C35.3381 37.5764 35.3557 38.4965 35.9966 39.4558C36.3829 40.0235 36.2863 40.03 35.5664 39.4819C34.6884 38.8228 34.1353 37.6156 34.3285 36.7999C34.6182 35.5861 36.1195 34.4246 38.4723 33.5958C39.3503 33.2826 40.5355 33.0085 41.4046 32.9041C42.0982 32.8258 43.5556 32.878 44.214 33.002Z" fill="black"/>
<path d="M49.0422 32.8653C50.0869 33.9224 50.4468 35.1035 50.0606 36.2324C49.7094 37.27 49.0948 38.0465 47.8569 38.9993C46.5664 39.9977 45.109 40.7612 43.2478 41.4268C41.5797 42.0271 39.6044 42.4252 38.3138 42.4382H37.7168L38.4191 42.634L39.1215 42.8232L39.9994 42.7188C42.5806 42.4187 45.8026 41.2114 47.8306 39.7954C49.1826 38.8492 50.0079 37.9682 50.4556 36.9829C50.6663 36.5326 50.7015 36.3564 50.6927 35.7104C50.6927 35.1035 50.6576 34.8817 50.4995 34.5358C50.2361 33.9681 49.7094 33.3155 49.1651 32.8914L48.7261 32.5455L49.0422 32.8653Z" fill="black"/>
<path d="M21.1413 35.1556C21.5539 35.5537 21.9402 36.0692 22.2651 36.65C22.4231 36.9371 22.6426 37.2177 22.7391 37.2699C22.985 37.3874 22.9762 37.3025 22.6513 36.7805C22.3265 36.2323 21.5452 35.3579 21.1589 35.0904L20.8691 34.8946L21.1413 35.1556Z" fill="black"/>
<path d="M3.02963 37.087C3.00329 37.1262 2.99451 37.1653 3.00329 37.1719C3.23156 37.3219 13.2225 41.2177 14.4955 41.6484L15.3295 41.9355H16.5147C17.6121 41.942 17.7614 41.9224 18.6042 41.7267C19.1046 41.6027 19.4997 41.4983 19.4821 41.4787C19.4558 41.4657 18.8149 41.4852 18.0423 41.5244C17.2785 41.5635 16.225 41.5831 15.707 41.5701L14.7676 41.5505L12.2831 40.6239C10.1585 39.8343 5.02254 37.8244 3.54761 37.211C3.25789 37.087 3.07353 37.0413 3.02963 37.087Z" fill="black"/>
<path d="M25.426 44.2264C23.6525 44.5657 21.8616 45.2639 18.5781 46.9018C14.5571 48.8987 12.731 49.6687 10.8171 50.1581C8.7891 50.6801 7.41075 50.6867 6.16408 50.1842L5.84802 50.0537L6.19042 50.2886C6.82253 50.7193 7.39319 50.8694 8.45549 50.902C10.9488 50.9738 13.3456 50.1516 19.1926 47.2346C21.8616 45.9034 23.8632 45.0943 25.4611 44.7093C26.6112 44.4287 27.9105 44.3765 28.9465 44.5788C30.7901 44.9311 32.9586 45.7599 37.9717 48.0242C43.1339 50.3604 44.2401 50.7584 45.7502 50.8302C46.7422 50.8759 47.4621 50.778 48.2347 50.4778C49.5516 49.9623 50.254 48.9313 50.0433 47.8154C49.9555 47.3391 49.4814 46.6147 48.9897 46.2167C48.6649 45.9491 48.6473 45.9426 48.8229 46.1514C49.4638 46.9279 49.7009 47.6131 49.5253 48.2592C49.1741 49.6034 47.6728 50.4583 45.6711 50.4583C43.9592 50.4583 42.9671 50.1189 37.7785 47.7697C30.1141 44.2982 28.0685 43.7109 25.426 44.2264Z" fill="black"/>
</svg>
