<svg width="261" height="120" viewBox="0 0 261 120" fill="none" xmlns="http://www.w3.org/2000/svg">
<path d="M22.004 6.03761C20.494 6.1657 18.8786 6.59482 17.5529 7.22248C17.1929 7.39541 16.4906 7.82452 15.9989 8.18318L15.1034 8.83006L14.287 8.66994C13.5583 8.52904 13.3037 8.50982 11.8024 8.50982C10.2748 8.50982 10.0641 8.52263 9.28274 8.67635C7.07034 9.11827 5.07743 10.0726 3.72541 11.3535C2.77724 12.2502 2.04856 13.4607 1.78518 14.5751C1.58325 15.4013 1.65349 16.9384 1.92565 17.6942C3.02307 20.7428 6.63138 23.0037 10.8103 23.2534L11.5303 23.2983L12.5223 26.9746C13.0754 28.9985 13.5319 30.6637 13.5407 30.6765C13.5583 30.6829 13.9358 30.574 14.3923 30.4331C15.9375 29.9464 18.3694 29.5172 20.5379 29.3443C21.9689 29.229 24.8924 29.2482 26.2883 29.3763C28.3427 29.5685 30.6078 30.004 32.03 30.4779C32.39 30.5996 32.7148 30.6765 32.7499 30.6509C32.7763 30.6188 33.2328 29.0113 33.7508 27.077C34.2688 25.1364 34.7253 23.4968 34.7692 23.42C34.8219 23.3047 34.9272 23.2791 35.5681 23.247C37.6576 23.1253 39.8173 22.408 41.4503 21.2872C42.4072 20.6275 42.9691 20.0831 43.5398 19.2889C44.4001 18.0784 44.725 16.9832 44.6547 15.6126C44.6284 15.1515 44.5494 14.5751 44.4704 14.3317C43.9173 12.5 42.4423 10.8668 40.3704 9.79717C39.5539 9.37446 38.0966 8.8813 37.0694 8.68275C36.2792 8.52904 36.0685 8.50982 34.5409 8.50982C33.0133 8.50982 32.8026 8.52263 32.0388 8.67635L31.2048 8.84287L30.6078 8.36892C29.5104 7.50429 27.8423 6.71651 26.341 6.36425C25.0856 6.06323 23.3034 5.92873 22.004 6.03761ZM24.5851 7.15843C25.9811 7.33136 27.3594 7.76688 28.4217 8.36892C29.0538 8.72118 29.9844 9.4385 30.362 9.86121L30.6517 10.1879L31.117 10.0341C31.3804 9.94448 31.9774 9.80357 32.4514 9.7075C33.6191 9.48334 35.2959 9.47053 36.4548 9.67548C38.079 9.97009 39.3783 10.4953 40.5899 11.3471C43.3027 13.2685 43.9963 16.1955 42.3106 18.6869C40.9498 20.7044 38.2282 22.043 35.1555 22.2159L34.4531 22.2543L33.742 21.9341C32.2144 21.2424 30.1337 20.5827 28.4305 20.256C26.7449 19.9358 25.7089 19.8461 23.6545 19.8461C21.6353 19.8461 20.3798 19.9486 18.9751 20.224C18.0972 20.3969 17.7373 20.5058 17.5529 20.6723C17.4475 20.7684 17.4475 20.794 17.5968 20.8709C17.7285 20.9413 17.9392 20.9542 18.5976 20.9157C19.0629 20.8837 20.5466 20.8645 21.8987 20.8645C24.032 20.8709 24.5061 20.8901 25.4894 21.0118C26.6571 21.1591 27.5701 21.3128 28.6588 21.5498C30.2566 21.8956 33.1801 22.8307 33.1801 22.9973C33.1801 23.0741 31.872 28.4284 31.7228 28.9728L31.6789 29.1458L31.2662 29.0305C31.038 28.9664 30.362 28.8255 29.7562 28.7167C25.1821 27.884 19.3614 27.9801 15.1561 28.9472C14.7698 29.0305 14.445 29.0945 14.4274 29.0753C14.4099 29.0625 13.9972 27.583 13.5144 25.7897C13.0315 23.9964 12.6189 22.4721 12.5926 22.3952C12.5574 22.2671 12.4784 22.2607 11.4776 22.2223C9.54612 22.1518 7.84293 21.6971 6.40311 20.8453C4.84039 19.9358 3.86588 18.815 3.31278 17.3227C3.10208 16.7271 3.0494 15.318 3.22499 14.716C3.83077 12.6857 5.5164 11.0653 7.9395 10.1943C9.28274 9.71391 10.2924 9.54098 11.8024 9.54098C12.8384 9.54098 13.1632 9.5666 13.8656 9.7075C14.3221 9.79717 14.9191 9.93807 15.1825 10.0213L15.6653 10.175L16.0692 9.75233C17.6495 8.11273 20.3272 7.08157 23.0488 7.06877C23.4877 7.06236 24.1813 7.10719 24.5851 7.15843Z" fill="white"/>
<path d="M45.1731 10.9949C49.0975 15.6127 46.7885 21.5947 40.1337 24.0733C39.3612 24.3615 37.7897 24.765 37.1488 24.8418C36.7976 24.8803 36.7888 24.8931 36.6922 25.2133C36.6483 25.3926 36.1304 27.3141 35.5421 29.4788C34.9627 31.6436 34.4711 33.4305 34.4447 33.4434C34.4272 33.4562 34.234 33.3473 34.0145 33.2064C32.6011 32.2457 29.9497 31.5027 26.8155 31.1633C25.4898 31.0224 21.3372 31.0032 19.9237 31.1313C17.3513 31.3682 15.016 31.8742 13.3919 32.5531C12.3208 33.0014 12.3647 32.9566 12.5051 33.4818C12.5754 33.7252 12.6544 33.9942 12.6807 34.071C12.7246 34.2055 12.7597 34.1927 13.3655 33.8597C14.8053 33.0655 17.2548 32.3866 19.8359 32.0792C22.8999 31.7077 27.1842 31.8038 29.8092 32.2905C32.0216 32.7004 33.8916 33.3473 34.9451 34.0646C35.3578 34.3528 35.3666 34.3528 35.4192 34.2055C35.4456 34.1287 35.9723 32.188 36.5869 29.9016L37.7106 25.7513L38.5271 25.5976C40.4674 25.2389 42.2232 24.56 43.865 23.5353C45.4189 22.5682 46.9114 20.8261 47.5347 19.2569C48.2195 17.5341 48.1405 15.3309 47.3504 13.7105C46.8587 12.7113 45.893 11.4624 45.1292 10.8412C44.857 10.617 44.857 10.6234 45.1731 10.9949Z" fill="white"/>
<path d="M2.80398 22.3693C4.26135 23.7335 6.56154 24.9056 8.84417 25.4436C9.3007 25.5461 9.67821 25.6357 9.69577 25.6357C9.70455 25.6357 9.66943 25.4756 9.61675 25.2707L9.52018 24.912L8.64225 24.7391C6.47375 24.31 4.83201 23.6503 3.24295 22.5807C2.63717 22.1772 2.55816 22.1324 2.80398 22.3693Z" fill="white"/>
<path d="M4.35834 35.4673C4.30566 35.5634 4.56026 35.6659 10.7497 37.978C13.0938 38.8554 13.2957 38.9451 13.3221 39.1052C13.3659 39.3614 13.1904 39.4895 12.8567 39.4511C12.7163 39.4318 10.5829 38.7914 8.12468 38.0356C4.93778 37.0493 3.62087 36.6714 3.55942 36.7227C3.48918 36.7675 3.51552 36.8123 3.62965 36.8764C3.72623 36.9276 5.70158 37.677 8.01933 38.548C10.3459 39.4126 12.3124 40.1684 12.4002 40.226C12.6812 40.4054 12.488 40.7512 12.1105 40.7512C12.0227 40.7512 9.942 40.13 7.48379 39.3742C5.03435 38.6184 2.96242 37.9908 2.89219 37.978C2.82195 37.9716 2.75172 38.01 2.74294 38.0612C2.72538 38.1317 3.98961 38.6313 7.15017 39.8161C9.74886 40.7832 11.6276 41.5262 11.6803 41.5966C11.8032 41.7567 11.5662 42.0321 11.3028 42.0321C11.2062 42.0321 9.09919 41.4109 6.63219 40.6487C4.16519 39.8866 2.10205 39.2525 2.04937 39.2333C1.9967 39.2205 1.92646 39.2525 1.90012 39.3101C1.85623 39.387 3.00632 39.8353 7.57158 41.4942C12.9709 43.4604 13.3308 43.5821 13.8664 43.6141C14.3931 43.6461 14.4809 43.6269 15.0252 43.422C15.8768 43.0889 16.509 42.9672 17.2025 43.0121C18.0102 43.0633 18.458 43.2042 18.5897 43.454C18.6862 43.6397 18.7038 43.6525 19.0637 43.6141C19.4061 43.5821 19.5993 43.6269 20.8811 44.0496L22.3209 44.5172L21.8029 44.7093C18.7126 45.8493 15.8593 46.6884 11.0921 47.8604C7.20285 48.8211 6.14933 49.1029 5.12214 49.468C3.2697 50.1277 3.0151 50.5248 3.79646 51.5944C4.27055 52.254 4.71829 52.3501 5.9474 52.0491C6.91313 51.8185 8.02811 51.3702 11.7154 49.7498C15.1745 48.2319 16.6933 47.5978 18.4404 46.9574C19.9066 46.4258 23.866 45.1064 24.0153 45.1064C24.1733 45.1064 27.887 46.3425 29.5375 46.9446C31.7587 47.7579 32.6278 48.123 38.3695 50.6657C40.0376 51.4022 41.6969 52.0235 42.3992 52.1772C43.4967 52.4142 43.962 52.2605 44.4712 51.4855C44.9453 50.7682 44.8575 50.3711 44.1376 49.9996C43.2333 49.5192 42.0042 49.1542 38.15 48.1999C34.691 47.348 32.2064 46.682 30.5647 46.1696C28.8791 45.6444 25.8063 44.5812 25.8063 44.53C25.8063 44.5044 26.4823 44.2674 27.3075 43.9984C28.5103 43.6077 28.8439 43.5244 28.9844 43.5757C29.2214 43.6717 29.4936 43.5821 29.5902 43.3771C29.6868 43.1786 30.2574 43.0121 31.0476 42.948C31.5041 42.9096 31.5041 42.9096 32.0308 43.2683C33.3038 44.1265 35.007 44.3442 37.2458 43.9279C40.5205 43.3195 43.163 41.8784 44.3746 40.0403C45.3754 38.516 44.8136 37.0749 42.9436 36.3448C42.0481 35.9989 41.2228 35.8708 39.8093 35.8644C37.9306 35.858 36.4995 36.127 34.6734 36.8251C31.7675 37.9331 30.3452 39.3037 30.4857 40.8281L30.5296 41.3212L30.073 41.6351C29.4585 42.0578 29.1775 42.1602 28.721 42.1154C28.3699 42.0834 28.3435 42.0898 28.2382 42.2819C28.1328 42.4613 27.887 42.5637 26.0697 43.2106L24.0241 43.9343L22.0224 43.2234C20.9162 42.8327 20.0119 42.4805 20.0119 42.442C20.0119 42.3972 19.9417 42.3011 19.8539 42.2243C19.7134 42.0962 19.652 42.0834 19.4237 42.141C19.1954 42.2051 19.0989 42.1859 18.7126 42.0321C17.8785 41.6799 17.3079 41.0394 17.1147 40.2388C16.9918 39.7393 16.7284 39.419 16.2192 39.1628C15.9383 39.0219 4.5866 35.3713 4.42857 35.3713C4.41979 35.3713 4.38468 35.4161 4.35834 35.4673ZM41.214 36.428C41.9866 36.5753 42.7416 36.8636 43.1718 37.1838L43.5493 37.4656L42.9084 37.3055C42.0481 37.0877 40.2746 37.0365 39.1245 37.1902C36.5873 37.536 33.8657 38.8042 32.9702 40.0467C32.3381 40.9177 32.3557 41.8208 32.9966 42.7623C33.3829 43.3195 33.2863 43.3259 32.5664 42.7879C31.6884 42.141 31.1353 40.9562 31.3285 40.1556C31.6182 38.9643 33.1195 37.8243 35.4723 37.0109C36.3503 36.7034 37.5355 36.4344 38.4046 36.332C39.0982 36.2551 40.5556 36.3063 41.214 36.428Z" fill="white"/>
<path d="M46.0422 36.2938C47.0869 37.3314 47.4468 38.4906 47.0606 39.5986C46.7094 40.617 46.0948 41.3791 44.8569 42.3142C43.5664 43.2941 42.109 44.0435 40.2478 44.6968C38.5797 45.286 36.6044 45.6767 35.3138 45.6895H34.7168L35.4191 45.8816L36.1215 46.0674L36.9994 45.9649C39.5806 45.6703 42.8026 44.4854 44.8306 43.0956C46.1826 42.1669 47.0079 41.3023 47.4556 40.3352C47.6663 39.8933 47.7015 39.7203 47.6927 39.0863C47.6927 38.4906 47.6576 38.2729 47.4995 37.9334C47.2361 37.3762 46.7094 36.7357 46.1651 36.3194L45.7261 35.98L46.0422 36.2938Z" fill="white"/>
<path d="M18.1413 38.5413C18.5539 38.932 18.9402 39.438 19.2651 40.008C19.4231 40.2898 19.6426 40.5652 19.7391 40.6165C19.985 40.7318 19.9762 40.6485 19.6513 40.1361C19.3265 39.5981 18.5452 38.7399 18.1589 38.4773L17.8691 38.2852L18.1413 38.5413Z" fill="white"/>
<path d="M0.0296303 40.4366C0.00329226 40.475 -0.00548709 40.5134 0.00329226 40.5199C0.231555 40.6672 10.2225 44.4908 11.4955 44.9135L12.3295 45.1953H13.5147C14.6121 45.2017 14.7614 45.1825 15.6042 44.9903C16.1046 44.8686 16.4997 44.7662 16.4821 44.747C16.4558 44.7341 15.8149 44.7534 15.0423 44.7918C14.2785 44.8302 13.225 44.8494 12.707 44.8366L11.7676 44.8174L9.28306 43.9079C7.15846 43.133 2.02254 41.1603 0.547612 40.5583C0.257893 40.4366 0.073527 40.3918 0.0296303 40.4366Z" fill="white"/>
<path d="M22.4261 47.4438C20.6527 47.7769 18.8617 48.4622 15.5782 50.0698C11.5573 52.0296 9.73115 52.7853 7.81725 53.2657C5.78923 53.7781 4.41087 53.7845 3.1642 53.2913L2.84814 53.1632L3.19054 53.3938C3.82265 53.8165 4.39331 53.9638 5.45561 53.9958C7.94895 54.0663 10.3457 53.2593 16.1928 50.3964C18.8617 49.0898 20.8634 48.2956 22.4612 47.9178C23.6113 47.6424 24.9106 47.5911 25.9466 47.7897C27.7903 48.1355 29.9588 48.9489 34.9718 51.1714C40.134 53.4642 41.2402 53.8549 42.7503 53.9254C43.7423 53.9702 44.4622 53.8741 45.2348 53.5795C46.5517 53.0736 47.2541 52.0616 47.0434 50.9664C46.9556 50.4989 46.4815 49.7879 45.9899 49.3973C45.665 49.1347 45.6475 49.1283 45.823 49.3332C46.4639 50.0954 46.701 50.7679 46.5254 51.4019C46.1742 52.7213 44.673 53.5603 42.6713 53.5603C40.9593 53.5603 39.9672 53.2273 34.7786 50.9216C27.1143 47.5143 25.0687 46.9379 22.4261 47.4438Z" fill="white"/>
<path d="M68.1422 21.1517C68.1422 20.8817 68.0432 20.6657 67.8452 20.5037C67.6472 20.3417 67.4041 20.2156 67.1161 20.1256C66.8281 20.0266 66.5221 19.9591 66.198 19.9231C65.874 19.8871 65.586 19.8601 65.334 19.8421C65.271 19.8421 65.2125 19.8376 65.1585 19.8286C65.1045 19.8106 65.0775 19.7611 65.0775 19.6801C65.0775 19.6261 65.1 19.5811 65.145 19.5451C65.19 19.5091 65.244 19.4821 65.307 19.4641C65.37 19.4371 65.433 19.4236 65.496 19.4236C65.559 19.4146 65.613 19.4101 65.658 19.4101C65.721 19.4101 65.856 19.4146 66.063 19.4236C66.2701 19.4236 66.5266 19.4281 66.8326 19.4371C67.1386 19.4371 67.4761 19.4416 67.8452 19.4506C68.2232 19.4506 68.6147 19.4506 69.0198 19.4506C69.7128 19.4506 70.3068 19.4416 70.8019 19.4236C71.3059 19.3966 71.7604 19.3696 72.1655 19.3426C72.5795 19.3066 72.971 19.2796 73.3401 19.2616C73.7181 19.2346 74.1231 19.2211 74.5552 19.2211C74.7262 19.2211 74.8747 19.2211 75.0007 19.2211C75.1357 19.2211 75.2707 19.2211 75.4057 19.2211C75.5407 19.2211 75.6892 19.2256 75.8512 19.2346C76.0223 19.2346 76.2248 19.2391 76.4588 19.2481C76.7018 19.2571 76.9943 19.2661 77.3364 19.2751C77.6874 19.2841 78.1104 19.2976 78.6054 19.3156C78.7045 19.3246 78.79 19.3606 78.862 19.4236C78.934 19.4866 78.979 19.5676 78.997 19.6666C79.015 20.2876 79.0285 20.8817 79.0375 21.4487C79.0555 22.0068 79.0645 22.6008 79.0645 23.2309C79.0645 23.3749 79.042 23.4469 78.997 23.4469C78.979 23.4469 78.952 23.4424 78.916 23.4334C78.88 23.4244 78.853 23.3974 78.835 23.3524C78.763 23.2084 78.6864 23.0508 78.6054 22.8798C78.5244 22.7088 78.4389 22.5378 78.3489 22.3668C78.2679 22.1868 78.1824 22.0158 78.0924 21.8538C78.0114 21.6917 77.9304 21.5522 77.8494 21.4352C77.7324 21.2642 77.5794 21.0887 77.3904 20.9087C77.2013 20.7197 76.9898 20.5487 76.7558 20.3957C76.5218 20.2426 76.2698 20.1166 75.9998 20.0176C75.7387 19.9186 75.4777 19.8601 75.2167 19.8421C75.0547 19.8421 74.9107 19.8421 74.7847 19.8421C74.6677 19.8331 74.5507 19.8286 74.4336 19.8286C74.3166 19.8286 74.1951 19.8286 74.0691 19.8286C73.9431 19.8286 73.7946 19.8286 73.6236 19.8286C73.2726 19.8286 72.908 19.8376 72.53 19.8556C72.161 19.8736 71.801 19.9186 71.4499 19.9906C71.3689 20.0086 71.2879 20.0356 71.2069 20.0716C71.1259 20.0986 71.0854 20.1706 71.0854 20.2876V28.7258C71.1034 28.8428 71.1664 28.9193 71.2744 28.9553C71.7875 28.9103 72.332 28.8743 72.908 28.8473C73.4931 28.8113 74.0421 28.7933 74.5552 28.7933C74.8072 28.7753 75.0322 28.6943 75.2302 28.5502C75.4372 28.3972 75.6172 28.2172 75.7702 28.0102C75.9233 27.7942 76.0583 27.5602 76.1753 27.3082C76.2923 27.0471 76.3958 26.7951 76.4858 26.5521C76.5758 26.3091 76.6523 26.0931 76.7153 25.9041C76.7873 25.706 76.8548 25.5575 76.9178 25.4585C76.9448 25.4135 76.9718 25.3865 76.9988 25.3775C77.0258 25.3685 77.1023 25.364 77.2283 25.364C77.2823 25.364 77.3364 25.3775 77.3904 25.4045C77.4534 25.4225 77.4849 25.454 77.4849 25.499C77.4849 25.823 77.4714 26.1111 77.4444 26.3631C77.4264 26.6151 77.4039 26.8401 77.3769 27.0381C77.3499 27.2361 77.3229 27.4207 77.2958 27.5917C77.2778 27.7537 77.2688 27.9112 77.2688 28.0642V33.1136C77.2508 33.1406 77.2283 33.1631 77.2013 33.1811C77.1563 33.2261 77.1113 33.2486 77.0663 33.2486C76.9943 33.2486 76.9223 33.1856 76.8503 33.0596C76.7873 32.9246 76.7198 32.758 76.6478 32.56C76.5848 32.362 76.5173 32.1415 76.4453 31.8985C76.3823 31.6555 76.3103 31.417 76.2293 31.1829C76.1573 30.9489 76.0763 30.7374 75.9863 30.5484C75.9052 30.3594 75.8107 30.2199 75.7027 30.1299C75.6037 30.0489 75.4597 29.9768 75.2707 29.9138C75.0817 29.8508 74.8657 29.8013 74.6227 29.7653C74.3886 29.7293 74.1366 29.7023 73.8666 29.6843C73.5966 29.6573 73.3356 29.6393 73.0835 29.6303C72.8405 29.6213 72.611 29.6168 72.395 29.6168C72.179 29.6168 72.008 29.6168 71.882 29.6168C71.6839 29.6168 71.5264 29.6303 71.4094 29.6573C71.3014 29.6753 71.2159 29.7203 71.1529 29.7923C71.0989 29.8643 71.0629 29.9678 71.0449 30.1029C71.0269 30.2379 71.0179 30.4224 71.0179 30.6564V36.0973C71.0179 36.3583 71.0314 36.5878 71.0584 36.7858C71.0854 36.9839 71.1304 37.1594 71.1934 37.3124C71.2654 37.4564 71.3554 37.5869 71.4634 37.7039C71.5804 37.8119 71.7199 37.9154 71.882 38.0144C72.008 38.0864 72.1475 38.1584 72.3005 38.2304C72.4625 38.2934 72.611 38.325 72.746 38.325H74.8657C75.0727 38.325 75.2572 38.325 75.4192 38.325C75.5902 38.316 75.7612 38.3069 75.9323 38.2979C76.1033 38.2799 76.2833 38.2574 76.4723 38.2304C76.6613 38.1944 76.8818 38.1494 77.1338 38.0954C77.4039 38.0324 77.6559 37.9244 77.8899 37.7714C78.1239 37.6184 78.3444 37.4339 78.5514 37.2179C78.7675 37.0019 78.97 36.7588 79.159 36.4888C79.348 36.2188 79.528 35.9353 79.699 35.6383C79.726 35.5933 79.7755 35.4987 79.8475 35.3547C79.9195 35.2017 79.996 35.0847 80.0771 35.0037C80.0861 34.9857 80.1086 34.9767 80.1446 34.9767C80.1806 34.9767 80.2121 35.0082 80.2391 35.0712C80.3021 35.1882 80.3336 35.4222 80.3336 35.7733C80.3336 35.8813 80.3021 36.0478 80.2391 36.2728C80.1761 36.4888 80.1221 36.6958 80.0771 36.8938C80.032 37.0559 79.996 37.2584 79.969 37.5014C79.942 37.7444 79.906 37.9829 79.861 38.2169C79.816 38.442 79.7485 38.6355 79.6585 38.7975C79.5775 38.9595 79.465 39.0405 79.321 39.0405C79.267 39.0405 79.222 39.036 79.186 39.027C79.15 39.027 79.1185 39.027 79.0915 39.027C79.0645 39.009 78.988 39 78.862 39H68.9117C68.7047 39 68.4527 39.0045 68.1557 39.0135C67.8677 39.0315 67.5751 39.045 67.2781 39.054C66.9811 39.072 66.6976 39.0855 66.4276 39.0945C66.1665 39.1125 65.9595 39.1215 65.8065 39.1215H65.4285C65.3295 39.1215 65.2305 39.099 65.1315 39.054C65.0325 39.018 64.983 38.955 64.983 38.865C64.983 38.784 64.992 38.703 65.01 38.622C65.037 38.541 65.091 38.478 65.172 38.433C65.19 38.424 65.2305 38.415 65.2935 38.406C65.3655 38.397 65.442 38.388 65.523 38.379C65.604 38.37 65.6805 38.3655 65.7525 38.3655C65.8245 38.3565 65.8785 38.352 65.9145 38.352C66.1305 38.334 66.3106 38.3205 66.4546 38.3115C66.5986 38.2934 66.7696 38.2484 66.9676 38.1764C67.3546 38.0594 67.6472 37.9064 67.8452 37.7174C68.0432 37.5194 68.1422 37.2089 68.1422 36.7858V21.1517ZM82.1157 38.7435C82.1157 38.5365 82.2057 38.4195 82.3857 38.3925H82.8988C83.0608 38.3925 83.2093 38.3925 83.3443 38.3925C83.4793 38.3835 83.5963 38.3655 83.6953 38.3385C83.7943 38.3115 83.8708 38.2664 83.9248 38.2034C83.9878 38.1404 84.0193 38.0549 84.0193 37.9469V27.0651C84.0193 26.9661 83.9788 26.8851 83.8978 26.8221C83.8168 26.7501 83.7268 26.7141 83.6278 26.7141H82.6692H82.4127C82.3677 26.7141 82.3137 26.7096 82.2507 26.7006C82.1877 26.6916 82.1157 26.6826 82.0347 26.6736C81.9897 26.6556 81.9492 26.6196 81.9132 26.5656C81.8862 26.5116 81.8727 26.4621 81.8727 26.4171C81.8727 26.2461 81.9807 26.1606 82.1967 26.1606H85.5179C85.5449 26.1606 85.6125 26.1561 85.7205 26.1471C85.8375 26.1381 85.959 26.1291 86.085 26.1201C86.211 26.1111 86.3235 26.1021 86.4225 26.0931C86.5215 26.0841 86.58 26.0796 86.598 26.0796C86.724 26.0706 86.8635 26.0616 87.0166 26.0526C87.1786 26.0436 87.3091 26.0391 87.4081 26.0391C87.4351 26.0391 87.4846 26.0436 87.5566 26.0526C87.6286 26.0526 87.7051 26.0571 87.7861 26.0661C87.8671 26.0661 87.9436 26.0706 88.0156 26.0796C88.0966 26.0796 88.1506 26.0796 88.1776 26.0796C88.3036 26.1066 88.3667 26.1786 88.3667 26.2956C88.3667 26.3946 88.3351 26.4936 88.2721 26.5926C88.2181 26.6556 88.1326 26.6871 88.0156 26.6871H86.5305C86.4675 26.6871 86.418 26.7231 86.382 26.7951C86.346 26.8581 86.3145 26.9391 86.2875 27.0381C86.2695 27.1281 86.256 27.2226 86.247 27.3217C86.247 27.4207 86.247 27.5062 86.247 27.5782C86.247 28.0462 86.2695 28.5142 86.3145 28.9823C86.3595 29.4413 86.382 29.9678 86.382 30.5619V38.0144C86.382 38.0774 86.3955 38.1539 86.4225 38.2439C86.4585 38.325 86.517 38.3655 86.598 38.3655H90.9183C91.1614 38.3655 91.3909 38.2574 91.6069 38.0414C91.8229 37.8254 92.0209 37.5734 92.2009 37.2854C92.3899 36.9974 92.552 36.7138 92.687 36.4348C92.831 36.1468 92.948 35.9353 93.038 35.8003C93.092 35.7373 93.146 35.7058 93.2 35.7058C93.245 35.7058 93.2855 35.7463 93.3215 35.8273C93.3575 35.9533 93.3755 36.0658 93.3755 36.1648C93.3845 36.2548 93.389 36.3898 93.389 36.5698C93.389 36.6418 93.3755 36.7498 93.3485 36.8938C93.3305 37.0289 93.3035 37.1729 93.2675 37.3259C93.2405 37.4789 93.2135 37.6274 93.1865 37.7714C93.1685 37.9064 93.1595 38.0144 93.1595 38.0954C93.1595 38.1404 93.1595 38.2034 93.1595 38.2844C93.1595 38.3565 93.155 38.433 93.146 38.514C93.146 38.595 93.1415 38.6715 93.1325 38.7435C93.1235 38.8065 93.11 38.8515 93.092 38.8785C92.966 38.9595 92.8535 39 92.7545 39C91.6294 39 90.4278 38.991 89.1497 38.973C87.8716 38.946 86.598 38.9325 85.3289 38.9325C85.1039 38.9325 84.8699 38.937 84.6269 38.946C84.3839 38.955 84.1498 38.9685 83.9248 38.9865C83.6998 38.9955 83.4838 39.0045 83.2768 39.0135C83.0788 39.0225 82.9078 39.027 82.7637 39.027C82.5747 39.027 82.4172 39.018 82.2912 39C82.1742 38.973 82.1157 38.8875 82.1157 38.7435ZM102.705 37.4879V27.3892C102.705 27.2992 102.696 27.2001 102.678 27.0921C102.669 26.9841 102.646 26.8806 102.61 26.7816C102.583 26.6826 102.538 26.5971 102.475 26.5251C102.412 26.4441 102.331 26.3901 102.232 26.3631C102.124 26.3361 101.998 26.3136 101.854 26.2956C101.719 26.2776 101.58 26.2641 101.436 26.2551C101.301 26.2371 101.17 26.2191 101.044 26.2011C100.918 26.1831 100.819 26.1606 100.747 26.1336C100.648 26.1066 100.599 26.0436 100.599 25.9446C100.599 25.8185 100.662 25.7555 100.788 25.7555H101.355C101.67 25.7555 101.989 25.778 102.313 25.823C102.637 25.859 102.97 25.8771 103.312 25.8771C103.906 25.8771 104.451 25.8545 104.946 25.8095C105.45 25.7555 105.958 25.7285 106.471 25.7285C106.66 25.7285 106.885 25.733 107.147 25.742C107.408 25.751 107.669 25.7645 107.93 25.7825C108.191 25.7915 108.434 25.805 108.659 25.823C108.893 25.841 109.064 25.859 109.172 25.8771C109.64 25.9311 110.058 26.0571 110.427 26.2551C110.796 26.4531 111.107 26.7096 111.359 27.0246C111.62 27.3397 111.813 27.7042 111.939 28.1182C112.074 28.5232 112.142 28.9598 112.142 29.4278C112.142 29.8238 112.074 30.1704 111.939 30.4674C111.804 30.7554 111.62 31.0074 111.386 31.2234C111.161 31.4395 110.891 31.6195 110.576 31.7635C110.261 31.9075 109.928 32.029 109.577 32.128C109.514 32.146 109.482 32.1865 109.482 32.2495C109.482 32.2855 109.5 32.317 109.536 32.344C109.581 32.371 109.626 32.3935 109.671 32.4115C110.166 32.6005 110.571 32.7896 110.886 32.9786C111.201 33.1676 111.494 33.4286 111.764 33.7616C111.944 33.9866 112.083 34.2432 112.182 34.5312C112.29 34.8102 112.344 35.1072 112.344 35.4222C112.344 35.8363 112.277 36.2548 112.142 36.6778C112.007 37.0919 111.804 37.4699 111.534 37.8119C111.165 38.2799 110.742 38.5995 110.265 38.7705C109.797 38.9415 109.28 39.027 108.713 39.027C108.488 39.027 108.231 39.0225 107.943 39.0135C107.655 39.0045 107.363 39 107.066 39H105.594H103.339H100.788C100.572 39 100.464 38.9145 100.464 38.7435C100.464 38.5815 100.572 38.4645 100.788 38.3925C101.058 38.3295 101.314 38.2889 101.557 38.2709C101.8 38.2529 102.043 38.2214 102.286 38.1764C102.475 38.1404 102.592 38.0504 102.637 37.9064C102.682 37.7534 102.705 37.6139 102.705 37.4879ZM104.919 32.668V38.0009C104.919 38.1359 104.986 38.2529 105.121 38.352C105.256 38.442 105.391 38.487 105.526 38.487H106.255C106.678 38.487 107.043 38.4735 107.349 38.4465C107.655 38.4105 107.925 38.3475 108.159 38.2574C108.393 38.1584 108.6 38.0324 108.78 37.8794C108.969 37.7174 109.154 37.5059 109.334 37.2449C109.604 36.8848 109.766 36.5653 109.82 36.2863C109.874 35.9983 109.901 35.7103 109.901 35.4222C109.901 35.2782 109.892 35.1252 109.874 34.9632C109.856 34.8012 109.829 34.6437 109.793 34.4907C109.766 34.3377 109.73 34.1982 109.685 34.0721C109.649 33.9371 109.604 33.8201 109.55 33.7211C109.316 33.3521 109.068 33.0641 108.807 32.8571C108.546 32.65 108.272 32.497 107.984 32.398C107.705 32.29 107.421 32.2225 107.133 32.1955C106.845 32.1685 106.561 32.155 106.282 32.155H105.27C105.036 32.155 104.919 32.326 104.919 32.668ZM104.919 31.696C104.919 31.813 105.022 31.8715 105.229 31.8715C105.346 31.8715 105.513 31.867 105.729 31.858C105.954 31.849 106.183 31.84 106.417 31.831C106.66 31.813 106.894 31.795 107.12 31.777C107.354 31.75 107.538 31.723 107.673 31.696C107.997 31.606 108.267 31.4755 108.483 31.3044C108.708 31.1334 108.888 30.9309 109.023 30.6969C109.158 30.4629 109.253 30.2064 109.307 29.9273C109.361 29.6393 109.388 29.3333 109.388 29.0093C109.388 28.5682 109.307 28.1722 109.145 27.8212C108.992 27.4702 108.767 27.1731 108.47 26.9301C108.182 26.6871 107.835 26.5026 107.43 26.3766C107.025 26.2416 106.579 26.1741 106.093 26.1741H105.688C105.472 26.1741 105.288 26.2101 105.135 26.2821C104.991 26.3451 104.919 26.4666 104.919 26.6466V31.696ZM124.414 38.676C124.414 38.415 124.441 38.0909 124.495 37.7039C124.549 37.3169 124.576 36.9389 124.576 36.5698C124.576 36.5068 124.563 36.4303 124.536 36.3403C124.518 36.2413 124.468 36.1918 124.387 36.1918C124.351 36.1918 124.306 36.2413 124.252 36.3403C124.207 36.4303 124.144 36.5248 124.063 36.6238C123.775 36.9479 123.487 37.2539 123.199 37.5419C122.911 37.8209 122.605 38.0684 122.281 38.2844C121.957 38.5005 121.606 38.6715 121.228 38.7975C120.85 38.9145 120.431 38.973 119.972 38.973C119.063 38.973 118.262 38.6715 117.569 38.0684C117.344 37.8884 117.16 37.6949 117.016 37.4879C116.881 37.2719 116.773 37.0469 116.692 36.8128C116.611 36.5788 116.557 36.3313 116.53 36.0703C116.503 35.8093 116.489 35.5392 116.489 35.2602V27.2947C116.489 27.1596 116.476 27.0381 116.449 26.9301C116.431 26.8131 116.354 26.7546 116.219 26.7546H114.113C114.032 26.7546 113.965 26.7186 113.91 26.6466C113.856 26.5746 113.829 26.5026 113.829 26.4306C113.829 26.3946 113.838 26.3271 113.856 26.2281C113.883 26.1291 113.947 26.0796 114.046 26.0796H118.501C118.645 26.0796 118.717 26.1426 118.717 26.2686V34.5582C118.717 34.9002 118.766 35.2377 118.865 35.5708C118.964 35.9038 119.113 36.2008 119.311 36.4618C119.509 36.7228 119.752 36.9344 120.04 37.0964C120.337 37.2584 120.679 37.3394 121.066 37.3394C121.516 37.3394 121.903 37.2989 122.227 37.2179C122.551 37.1279 122.884 36.9884 123.226 36.7993C123.604 36.5743 123.937 36.2503 124.225 35.8273C124.333 35.6743 124.419 35.5302 124.482 35.3952C124.545 35.2602 124.594 35.1252 124.63 34.9902C124.666 34.8552 124.689 34.7112 124.698 34.5582C124.716 34.4052 124.729 34.2342 124.738 34.0451L124.873 27.3487C124.873 27.3217 124.869 27.2677 124.86 27.1866C124.86 27.0966 124.846 27.0021 124.819 26.9031C124.801 26.8041 124.77 26.7186 124.725 26.6466C124.689 26.5656 124.63 26.5251 124.549 26.5251C124.495 26.5251 124.387 26.5341 124.225 26.5521C124.072 26.5701 123.892 26.5791 123.685 26.5791C123.487 26.5791 123.298 26.5836 123.118 26.5926C122.947 26.5926 122.812 26.5926 122.713 26.5926C122.524 26.5926 122.367 26.5836 122.241 26.5656C122.115 26.5476 122.052 26.4801 122.052 26.3631C122.052 26.3001 122.056 26.2326 122.065 26.1606C122.074 26.0886 122.11 26.0301 122.173 25.9851C122.254 25.9311 122.344 25.8951 122.443 25.8771C122.551 25.859 122.655 25.85 122.754 25.85C122.88 25.85 123.024 25.859 123.186 25.8771C123.348 25.8951 123.51 25.9131 123.672 25.9311C123.843 25.9491 124.005 25.9671 124.158 25.9851C124.32 26.0031 124.459 26.0121 124.576 26.0121H127.168C127.231 26.0121 127.263 26.0436 127.263 26.1066L126.844 36.7318V36.9208C126.844 36.9659 126.844 37.0019 126.844 37.0289C126.844 37.0559 126.849 37.0919 126.858 37.1369C126.903 37.2899 126.97 37.4294 127.06 37.5554C127.15 37.6814 127.294 37.7444 127.492 37.7444C127.609 37.7444 127.735 37.7354 127.871 37.7174C128.006 37.6994 128.136 37.6769 128.262 37.6499C128.388 37.6229 128.505 37.6004 128.613 37.5824C128.73 37.5644 128.825 37.5554 128.897 37.5554C128.996 37.5554 129.054 37.5914 129.072 37.6634C129.099 37.7354 129.113 37.7984 129.113 37.8524C129.113 37.9604 129.072 38.0459 128.991 38.1089C128.919 38.1629 128.843 38.2124 128.762 38.2574C128.564 38.3205 128.384 38.352 128.222 38.352C128.123 38.352 128.028 38.3565 127.938 38.3655C127.857 38.3655 127.74 38.3745 127.587 38.3925C127.299 38.4285 126.984 38.487 126.642 38.568C126.309 38.649 126.007 38.73 125.737 38.811C125.557 38.883 125.386 38.946 125.224 39C125.071 39.045 124.9 39.0675 124.711 39.0675C124.612 39.0675 124.536 39.027 124.482 38.946C124.437 38.865 124.414 38.775 124.414 38.676ZM135.431 32.2495L137.74 32.155C138.1 32.128 138.374 32.0425 138.563 31.8985C138.752 31.7455 138.892 31.5655 138.982 31.3584C139.081 31.1424 139.153 30.9084 139.198 30.6564C139.252 30.4044 139.328 30.1569 139.427 29.9138C139.454 29.8058 139.499 29.7518 139.562 29.7518C139.688 29.7518 139.751 29.7833 139.751 29.8463V30.3864C139.751 30.7464 139.733 31.1379 139.697 31.561C139.67 31.975 139.657 32.3305 139.657 32.6275C139.657 32.9156 139.679 33.2216 139.724 33.5456C139.778 33.8696 139.805 34.2027 139.805 34.5447C139.805 34.5897 139.801 34.6617 139.792 34.7607C139.783 34.8597 139.769 34.9632 139.751 35.0712C139.733 35.1792 139.706 35.2737 139.67 35.3547C139.643 35.4357 139.603 35.4762 139.549 35.4762C139.45 35.4762 139.387 35.4312 139.36 35.3412C139.342 35.2422 139.324 35.1522 139.306 35.0712C139.288 34.9632 139.256 34.8327 139.211 34.6797C139.166 34.5267 139.117 34.3737 139.063 34.2207C139.009 34.0586 138.959 33.9146 138.914 33.7886C138.869 33.6626 138.838 33.5771 138.82 33.5321C138.739 33.3701 138.581 33.2441 138.347 33.1541C138.113 33.0551 137.848 32.9831 137.551 32.9381C137.263 32.8841 136.961 32.8526 136.646 32.8436C136.34 32.8256 136.07 32.8166 135.836 32.8166H135.431C135.287 32.8166 135.197 32.8481 135.161 32.9111C135.125 32.9651 135.107 33.0551 135.107 33.1811V37.9199C135.107 38.1899 135.193 38.361 135.364 38.433H139.468C139.648 38.433 139.832 38.433 140.021 38.433C140.219 38.424 140.35 38.4015 140.413 38.3655C140.548 38.3295 140.66 38.2529 140.75 38.1359C140.849 38.0099 140.93 37.8929 140.993 37.7849C141.02 37.7399 141.07 37.6454 141.142 37.5014C141.223 37.3574 141.304 37.2044 141.385 37.0424C141.475 36.8713 141.556 36.7138 141.628 36.5698C141.709 36.4258 141.768 36.3313 141.804 36.2863C141.858 36.1783 141.948 36.1243 142.074 36.1243C142.155 36.1243 142.213 36.1558 142.249 36.2188V38.2304C142.249 38.3115 142.24 38.388 142.222 38.46C142.213 38.523 142.2 38.604 142.182 38.703C142.146 38.829 142.101 38.9145 142.047 38.9595C141.993 38.9955 141.889 39.0315 141.736 39.0675C140.827 39.0675 139.963 39.063 139.144 39.054C138.334 39.045 137.51 39.036 136.673 39.027C135.836 39.027 134.954 39.0225 134.027 39.0135C133.1 39.0045 132.065 39 130.922 39C130.769 39 130.692 38.9235 130.692 38.7705C130.692 38.6715 130.742 38.595 130.841 38.541C130.94 38.487 131.03 38.451 131.111 38.433C131.165 38.433 131.25 38.4285 131.367 38.4195C131.493 38.4105 131.628 38.406 131.772 38.406C131.916 38.397 132.056 38.388 132.191 38.379C132.326 38.37 132.443 38.3655 132.542 38.3655C132.758 38.3655 132.866 38.1944 132.866 37.8524V27.8887C132.866 27.7357 132.848 27.5467 132.812 27.3217C132.785 27.0966 132.726 26.9076 132.636 26.7546C132.573 26.7096 132.542 26.6871 132.542 26.6871L130.652 26.4981C130.481 26.4981 130.395 26.4126 130.395 26.2416C130.395 26.1966 130.404 26.1426 130.422 26.0796C130.44 26.0076 130.499 25.9716 130.598 25.9716H132.812C133.676 25.9716 134.526 25.9671 135.364 25.9581C136.201 25.9491 136.97 25.9446 137.672 25.9446H139.589C139.733 25.9446 139.882 25.9491 140.035 25.9581C140.197 25.9581 140.35 25.9626 140.494 25.9716C140.638 25.9716 140.768 25.9761 140.885 25.9851C141.002 25.9851 141.092 25.9851 141.155 25.9851C141.218 25.9941 141.268 26.0256 141.304 26.0796C141.34 26.1336 141.362 26.2011 141.371 26.2821C141.389 26.3541 141.398 26.4306 141.398 26.5116C141.407 26.5836 141.412 26.6421 141.412 26.6871V28.8878C141.412 28.9688 141.38 29.0093 141.317 29.0093C141.218 29.0093 141.142 28.9463 141.088 28.8203C141.043 28.6853 140.971 28.5277 140.872 28.3477C140.791 28.1497 140.692 27.9517 140.575 27.7537C140.458 27.5557 140.372 27.4027 140.318 27.2947C140.237 27.1416 140.111 27.0246 139.94 26.9436C139.778 26.8536 139.594 26.7861 139.387 26.7411C139.18 26.6871 138.968 26.6466 138.752 26.6196C138.536 26.5926 138.347 26.5611 138.185 26.5251C138.131 26.5251 137.992 26.5206 137.767 26.5116C137.542 26.5026 137.285 26.4981 136.997 26.4981C136.718 26.4891 136.439 26.4801 136.16 26.4711C135.89 26.4621 135.679 26.4576 135.526 26.4576C135.337 26.4576 135.22 26.5116 135.175 26.6196C135.13 26.7276 135.107 26.8896 135.107 27.1056V31.9255C135.107 32.0065 135.134 32.083 135.188 32.155C135.251 32.218 135.332 32.2495 135.431 32.2495ZM145.206 39C145.116 39 145.017 38.9955 144.909 38.9865C144.801 38.9775 144.697 38.9595 144.598 38.9325C144.508 38.8965 144.432 38.847 144.369 38.784C144.306 38.721 144.274 38.6355 144.274 38.5275C144.274 38.4465 144.279 38.3745 144.288 38.3115C144.306 38.2484 144.355 38.1989 144.436 38.1629C144.724 38.1179 144.963 38.0864 145.152 38.0684C145.35 38.0504 145.516 38.0099 145.651 37.9469C145.786 37.8839 145.894 37.7759 145.975 37.6229C146.065 37.4609 146.142 37.2179 146.205 36.8938C146.205 36.1288 146.209 35.3412 146.218 34.5312C146.236 33.7211 146.263 32.9381 146.299 32.182C146.317 31.633 146.362 31.1019 146.434 30.5889C146.515 30.0669 146.556 29.5313 146.556 28.9823C146.556 28.8833 146.551 28.8113 146.542 28.7663C146.533 28.7213 146.506 28.6358 146.461 28.5097C146.434 28.4647 146.38 28.3837 146.299 28.2667C146.218 28.1407 146.128 28.0147 146.029 27.8887C145.93 27.7537 145.831 27.6277 145.732 27.5107C145.642 27.3847 145.575 27.2992 145.53 27.2542C145.44 27.1461 145.309 27.0606 145.138 26.9976C144.967 26.9256 144.796 26.8581 144.625 26.7951C144.463 26.7231 144.319 26.6466 144.193 26.5656C144.076 26.4756 144.018 26.3541 144.018 26.2011C144.018 26.1201 144.045 26.0571 144.099 26.0121C144.162 25.9581 144.234 25.9176 144.315 25.8906C144.405 25.8635 144.49 25.8455 144.571 25.8365C144.661 25.8275 144.733 25.823 144.787 25.823C144.805 25.823 144.841 25.8275 144.895 25.8365C144.949 25.8455 145.008 25.859 145.071 25.8771C145.134 25.8861 145.192 25.8951 145.246 25.9041C145.3 25.9131 145.341 25.9176 145.368 25.9176H146.799C146.844 25.9356 146.916 25.9761 147.015 26.0391C147.114 26.0931 147.181 26.1381 147.217 26.1741C147.901 26.9211 148.572 27.6547 149.229 28.3747C149.886 29.0948 150.534 29.8058 151.173 30.5079C151.821 31.2099 152.465 31.9075 153.104 32.6005C153.752 33.2936 154.404 33.9956 155.061 34.7067C155.106 34.7517 155.147 34.7922 155.183 34.8282C155.219 34.8552 155.255 34.8822 155.291 34.9092C155.327 34.9272 155.358 34.9362 155.385 34.9362C155.466 34.9362 155.53 34.9002 155.575 34.8282C155.62 34.7472 155.642 34.6977 155.642 34.6797V31.4125V30.2649C155.642 29.9498 155.633 29.6303 155.615 29.3063C155.606 28.9823 155.588 28.6808 155.561 28.4017C155.534 28.1137 155.498 27.8572 155.453 27.6322C155.408 27.4072 155.354 27.2406 155.291 27.1326C155.165 26.9256 154.971 26.7816 154.71 26.7006C154.449 26.6196 154.188 26.5611 153.927 26.5251C153.666 26.4801 153.437 26.4351 153.239 26.3901C153.05 26.3451 152.955 26.2596 152.955 26.1336C152.955 25.8816 153.104 25.7555 153.401 25.7555H158.518C158.689 25.7555 158.774 25.859 158.774 26.0661C158.774 26.1561 158.675 26.2326 158.477 26.2956C158.279 26.3496 158.054 26.4216 157.802 26.5116C157.55 26.6016 157.303 26.7186 157.06 26.8626C156.826 27.0066 156.668 27.2046 156.587 27.4567C156.488 27.6817 156.421 27.9247 156.385 28.1857C156.349 28.4467 156.331 28.8068 156.331 29.2658V38.7165C156.331 38.7975 156.299 38.865 156.236 38.919C156.173 38.973 156.124 39 156.088 39C155.971 39 155.84 38.9145 155.696 38.7435C155.66 38.6985 155.543 38.568 155.345 38.352C155.156 38.1359 154.908 37.8614 154.602 37.5284C154.296 37.1954 153.945 36.8173 153.549 36.3943C153.153 35.9713 152.739 35.5257 152.307 35.0577C151.875 34.5897 151.434 34.1126 150.984 33.6266C150.534 33.1406 150.102 32.6725 149.688 32.2225C149.274 31.7725 148.883 31.3539 148.513 30.9669C148.153 30.5709 147.847 30.2334 147.595 29.9543C147.505 29.8823 147.424 29.8463 147.352 29.8463C147.208 29.8463 147.118 29.9363 147.082 30.1164C147.046 30.2964 147.028 30.4854 147.028 30.6834C147.028 30.7734 147.028 30.9084 147.028 31.0884C147.037 31.2594 147.046 31.462 147.055 31.696C147.064 31.921 147.073 32.164 147.082 32.425C147.1 32.677 147.114 32.9246 147.123 33.1676C147.132 33.4016 147.136 33.6176 147.136 33.8156C147.145 34.0136 147.15 34.1712 147.15 34.2882V34.9362C147.15 35.1432 147.15 35.3772 147.15 35.6383C147.159 35.8993 147.172 36.1558 147.19 36.4078C147.217 36.6598 147.249 36.8893 147.285 37.0964C147.33 37.3034 147.393 37.4609 147.474 37.5689C147.564 37.7129 147.681 37.8164 147.825 37.8794C147.969 37.9424 148.122 37.9874 148.284 38.0144C148.446 38.0324 148.608 38.0459 148.77 38.0549C148.941 38.0549 149.09 38.0684 149.216 38.0954C149.351 38.1224 149.459 38.1764 149.54 38.2574C149.621 38.3295 149.661 38.4465 149.661 38.6085C149.661 38.6895 149.652 38.757 149.634 38.811C149.625 38.856 149.576 38.919 149.486 39H145.206ZM166.578 36.9614C166.578 36.7183 166.632 36.4753 166.74 36.2323C166.848 35.9893 166.933 35.7688 166.996 35.5708C166.996 35.5257 167.005 35.4492 167.023 35.3412C167.05 35.2242 167.077 35.1027 167.104 34.9767C167.131 34.8507 167.158 34.7337 167.185 34.6257C167.212 34.5087 167.235 34.4232 167.253 34.3692C167.28 34.2612 167.352 34.2072 167.469 34.2072C167.586 34.2072 167.653 34.2927 167.671 34.4637V34.7742C167.671 34.9182 167.676 35.0172 167.685 35.0712C167.694 35.1252 167.707 35.1747 167.725 35.2197C167.797 35.6158 167.91 36.0028 168.063 36.3808C168.216 36.7498 168.414 37.0829 168.657 37.3799C168.9 37.6679 169.188 37.9019 169.521 38.0819C169.863 38.2619 170.259 38.352 170.709 38.352C171.042 38.352 171.362 38.3024 171.668 38.2034C171.974 38.0954 172.244 37.9469 172.478 37.7579C172.721 37.5599 172.91 37.3214 173.045 37.0424C173.189 36.7633 173.261 36.4483 173.261 36.0973C173.261 35.5573 173.162 35.1117 172.964 34.7607C172.775 34.4097 172.523 34.1216 172.208 33.8966C171.902 33.6626 171.546 33.4691 171.141 33.3161C170.745 33.1631 170.336 33.0191 169.913 32.8841C169.499 32.74 169.089 32.5825 168.684 32.4115C168.288 32.2405 167.932 32.02 167.617 31.75C167.311 31.471 167.059 31.1244 166.861 30.7104C166.672 30.2964 166.578 29.7743 166.578 29.1443C166.578 28.9373 166.596 28.7483 166.632 28.5772C166.677 28.4062 166.731 28.2532 166.794 28.1182C166.857 27.9742 166.92 27.8482 166.983 27.7402C167.046 27.6322 167.104 27.5332 167.158 27.4432C167.293 27.2271 167.46 27.0156 167.658 26.8086C167.865 26.5926 168.103 26.4036 168.373 26.2416C168.643 26.0796 168.945 25.9491 169.278 25.85C169.62 25.742 169.989 25.688 170.385 25.688C170.754 25.688 171.137 25.76 171.533 25.9041C171.929 26.0391 172.284 26.2236 172.599 26.4576C172.698 26.5566 172.797 26.6556 172.896 26.7546C172.995 26.8536 173.094 26.9031 173.193 26.9031C173.328 26.9031 173.432 26.8626 173.504 26.7816C173.585 26.6916 173.675 26.5746 173.774 26.4306C173.792 26.4216 173.805 26.4126 173.814 26.4036C173.832 26.3946 173.85 26.3901 173.868 26.3901C173.895 26.3901 173.913 26.4126 173.922 26.4576C173.94 26.5026 173.954 26.5566 173.963 26.6196C173.981 26.6736 173.99 26.7321 173.99 26.7951C173.999 26.8581 174.003 26.9031 174.003 26.9301C174.003 26.9571 173.99 27.0471 173.963 27.2001C173.945 27.3532 173.913 27.5377 173.868 27.7537C173.832 27.9607 173.787 28.1857 173.733 28.4287C173.688 28.6628 173.634 28.8833 173.571 29.0903C173.517 29.2883 173.459 29.4548 173.396 29.5898C173.342 29.7248 173.288 29.7923 173.234 29.7923C173.216 29.7923 173.202 29.7878 173.193 29.7788C173.166 29.7608 173.148 29.7428 173.139 29.7248C173.067 29.5898 173.013 29.4773 172.977 29.3873C172.95 29.2973 172.928 29.2118 172.91 29.1308C172.901 29.0498 172.892 28.9688 172.883 28.8878C172.883 28.8068 172.874 28.7123 172.856 28.6042C172.838 28.4692 172.793 28.3387 172.721 28.2127C172.613 27.9157 172.491 27.6727 172.356 27.4837C172.23 27.2947 172.055 27.1011 171.83 26.9031C171.695 26.7411 171.564 26.6196 171.438 26.5386C171.321 26.4486 171.191 26.3856 171.047 26.3496C170.903 26.3046 170.741 26.2821 170.561 26.2821C170.381 26.2731 170.16 26.2686 169.899 26.2686C169.647 26.2686 169.413 26.3271 169.197 26.4441C168.99 26.5611 168.81 26.7141 168.657 26.9031C168.504 27.0921 168.382 27.3127 168.292 27.5647C168.211 27.8077 168.171 28.0597 168.171 28.3207C168.171 28.7618 168.265 29.1263 168.454 29.4143C168.652 29.6933 168.909 29.9318 169.224 30.1299C169.548 30.3189 169.913 30.4854 170.318 30.6294C170.723 30.7644 171.132 30.9084 171.546 31.0614C171.969 31.2054 172.383 31.3764 172.788 31.5745C173.193 31.7635 173.553 32.0155 173.868 32.3305C174.192 32.6365 174.449 33.0191 174.638 33.4781C174.836 33.9371 174.935 34.5087 174.935 35.1927C174.935 35.6518 174.822 36.1063 174.597 36.5563C174.381 37.0064 174.089 37.4249 173.72 37.8119C173.558 37.9919 173.351 38.1539 173.099 38.2979C172.847 38.442 172.568 38.568 172.262 38.676C171.965 38.775 171.645 38.856 171.303 38.919C170.97 38.973 170.642 39 170.318 39C169.994 39 169.616 38.9325 169.183 38.7975C168.751 38.6535 168.342 38.4825 167.955 38.2844C167.568 38.0774 167.239 37.8569 166.969 37.6229C166.708 37.3799 166.578 37.1594 166.578 36.9614ZM175.704 38.622C175.704 38.586 175.731 38.532 175.785 38.46C175.83 38.388 175.902 38.352 176.001 38.352C176.145 38.352 176.299 38.3295 176.461 38.2844C176.632 38.2394 176.794 38.1719 176.947 38.0819C177.109 37.9829 177.257 37.8614 177.392 37.7174C177.536 37.5644 177.658 37.3844 177.757 37.1774L181.334 28.6988C181.343 28.6808 181.361 28.6403 181.388 28.5772C181.424 28.5052 181.442 28.4467 181.442 28.4017C181.442 28.3027 181.42 28.2037 181.375 28.1047C181.33 28.0057 181.276 27.9157 181.213 27.8347C181.159 27.7447 181.109 27.6682 181.064 27.6052C181.019 27.5332 180.997 27.4702 180.997 27.4162C180.997 27.3262 181.028 27.2542 181.091 27.2001C181.154 27.1461 181.226 27.1056 181.307 27.0786C181.397 27.0426 181.492 27.0201 181.591 27.0111C181.69 27.0021 181.775 26.9886 181.847 26.9706C181.928 26.9346 182.018 26.8761 182.117 26.7951C182.216 26.7051 182.297 26.6331 182.36 26.5791C182.387 26.5341 182.41 26.4756 182.428 26.4036C182.446 26.3316 182.464 26.2641 182.482 26.2011C182.509 26.1381 182.54 26.0841 182.576 26.0391C182.621 25.9941 182.68 25.9716 182.752 25.9716C182.932 25.9716 183.04 26.0481 183.076 26.2011L186.937 37.7579C186.991 37.9289 187.05 38.0639 187.113 38.1629C187.185 38.2529 187.27 38.3205 187.369 38.3655C187.468 38.4105 187.576 38.4375 187.693 38.4465C187.819 38.4555 187.963 38.46 188.125 38.46H188.611C188.692 38.46 188.755 38.469 188.8 38.487C188.845 38.487 188.895 38.5185 188.949 38.5815C189.012 38.6445 189.043 38.6985 189.043 38.7435C189.043 38.8875 188.962 38.964 188.8 38.973C188.782 38.991 188.719 39 188.611 39H187.842C187.581 39 187.279 38.9865 186.937 38.9595C186.595 38.9235 186.253 38.9055 185.911 38.9055C185.353 38.9055 184.813 38.9235 184.291 38.9595C183.769 38.9865 183.306 39 182.9 39C182.855 39 182.806 38.991 182.752 38.973C182.707 38.955 182.684 38.919 182.684 38.865C182.684 38.811 182.707 38.757 182.752 38.703C182.797 38.649 182.851 38.5995 182.914 38.5545C182.977 38.5005 183.044 38.46 183.117 38.433C183.198 38.406 183.27 38.3925 183.333 38.3925C183.423 38.3925 183.513 38.397 183.603 38.406C183.693 38.415 183.792 38.4195 183.9 38.4195C184.188 38.4195 184.422 38.388 184.602 38.325C184.755 38.2709 184.831 38.1629 184.831 38.0009C184.831 37.9829 184.827 37.9604 184.818 37.9334C184.809 37.9064 184.8 37.8659 184.791 37.8119C184.755 37.7309 184.696 37.5824 184.615 37.3664C184.534 37.1414 184.449 36.8983 184.359 36.6373C184.269 36.3763 184.179 36.1243 184.089 35.8813C184.008 35.6383 183.945 35.4492 183.9 35.3142C183.864 35.2332 183.823 35.1567 183.778 35.0847C183.742 35.0037 183.675 34.9632 183.576 34.9632H179.782C179.557 34.9632 179.413 35.0712 179.35 35.2872L178.81 37.2449C178.792 37.3079 178.778 37.3619 178.769 37.4069C178.76 37.4519 178.756 37.5149 178.756 37.5959C178.756 37.7399 178.765 37.8569 178.783 37.9469C178.81 38.0279 178.846 38.0954 178.891 38.1494C178.945 38.2034 179.012 38.2439 179.093 38.2709C179.183 38.2889 179.296 38.3069 179.431 38.325C179.476 38.325 179.548 38.334 179.647 38.352C179.755 38.361 179.867 38.3745 179.984 38.3925C180.101 38.4105 180.209 38.4285 180.308 38.4465C180.416 38.4555 180.493 38.46 180.538 38.46C180.583 38.478 180.646 38.523 180.727 38.595C180.817 38.658 180.862 38.73 180.862 38.811C180.862 38.856 180.844 38.901 180.808 38.946C180.772 38.982 180.704 39 180.605 39H180.187C180.043 39 179.845 38.9955 179.593 38.9865C179.35 38.9775 179.102 38.973 178.85 38.973C178.607 38.973 178.315 38.9775 177.973 38.9865C177.631 38.9955 177.28 39 176.92 39C176.875 39 176.785 38.9955 176.65 38.9865C176.515 38.9685 176.375 38.946 176.231 38.919C176.096 38.883 175.974 38.8425 175.866 38.7975C175.758 38.7435 175.704 38.685 175.704 38.622ZM179.876 33.7616C179.867 33.7796 179.863 33.8291 179.863 33.9101V33.9776C179.863 34.0766 179.89 34.1622 179.944 34.2342C180.007 34.2972 180.088 34.3287 180.187 34.3287C180.736 34.3287 181.253 34.3512 181.739 34.3962C182.234 34.4322 182.711 34.4502 183.171 34.4502C183.27 34.4502 183.346 34.4232 183.4 34.3692C183.454 34.3062 183.481 34.2477 183.481 34.1937V34.0451C183.481 34.0271 183.477 34.0091 183.468 33.9911C183.45 33.9641 183.436 33.9191 183.427 33.8561L181.982 29.7518C181.91 29.5628 181.825 29.4683 181.726 29.4683C181.681 29.4683 181.631 29.4863 181.577 29.5223C181.523 29.5583 181.487 29.5943 181.469 29.6303L179.876 33.7616ZM191.865 37.4879V27.3892C191.865 27.2992 191.856 27.2001 191.838 27.0921C191.829 26.9841 191.807 26.8806 191.771 26.7816C191.744 26.6826 191.699 26.5971 191.636 26.5251C191.573 26.4441 191.492 26.3901 191.393 26.3631C191.285 26.3361 191.159 26.3136 191.015 26.2956C190.88 26.2776 190.74 26.2641 190.596 26.2551C190.461 26.2371 190.331 26.2191 190.205 26.2011C190.079 26.1831 189.979 26.1606 189.907 26.1336C189.808 26.1066 189.759 26.0436 189.759 25.9446C189.759 25.8185 189.822 25.7555 189.948 25.7555H190.515C190.83 25.7555 191.15 25.778 191.474 25.823C191.798 25.859 192.131 25.8771 192.473 25.8771C193.067 25.8771 193.611 25.8545 194.106 25.8095C194.61 25.7555 195.119 25.7285 195.632 25.7285C195.821 25.7285 196.046 25.733 196.307 25.742C196.568 25.751 196.829 25.7645 197.09 25.7825C197.351 25.7915 197.594 25.805 197.819 25.823C198.053 25.841 198.224 25.859 198.332 25.8771C198.8 25.9311 199.219 26.0571 199.588 26.2551C199.957 26.4531 200.267 26.7096 200.519 27.0246C200.78 27.3397 200.974 27.7042 201.1 28.1182C201.235 28.5232 201.302 28.9598 201.302 29.4278C201.302 29.8238 201.235 30.1704 201.1 30.4674C200.965 30.7554 200.78 31.0074 200.546 31.2234C200.321 31.4395 200.051 31.6195 199.736 31.7635C199.421 31.9075 199.088 32.029 198.737 32.128C198.674 32.146 198.643 32.1865 198.643 32.2495C198.643 32.2855 198.661 32.317 198.697 32.344C198.742 32.371 198.787 32.3935 198.832 32.4115C199.327 32.6005 199.732 32.7896 200.047 32.9786C200.362 33.1676 200.654 33.4286 200.924 33.7616C201.104 33.9866 201.244 34.2432 201.343 34.5312C201.451 34.8102 201.505 35.1072 201.505 35.4222C201.505 35.8363 201.437 36.2548 201.302 36.6778C201.167 37.0919 200.965 37.4699 200.695 37.8119C200.326 38.2799 199.903 38.5995 199.426 38.7705C198.958 38.9415 198.44 39.027 197.873 39.027C197.648 39.027 197.392 39.0225 197.104 39.0135C196.815 39.0045 196.523 39 196.226 39H194.754H192.5H189.948C189.732 39 189.624 38.9145 189.624 38.7435C189.624 38.5815 189.732 38.4645 189.948 38.3925C190.218 38.3295 190.475 38.2889 190.718 38.2709C190.961 38.2529 191.204 38.2214 191.447 38.1764C191.636 38.1404 191.753 38.0504 191.798 37.9064C191.843 37.7534 191.865 37.6139 191.865 37.4879ZM194.079 32.668V38.0009C194.079 38.1359 194.147 38.2529 194.282 38.352C194.417 38.442 194.552 38.487 194.687 38.487H195.416C195.839 38.487 196.203 38.4735 196.509 38.4465C196.815 38.4105 197.086 38.3475 197.32 38.2574C197.554 38.1584 197.761 38.0324 197.941 37.8794C198.13 37.7174 198.314 37.5059 198.494 37.2449C198.764 36.8848 198.926 36.5653 198.98 36.2863C199.034 35.9983 199.061 35.7103 199.061 35.4222C199.061 35.2782 199.052 35.1252 199.034 34.9632C199.016 34.8012 198.989 34.6437 198.953 34.4907C198.926 34.3377 198.89 34.1982 198.845 34.0721C198.809 33.9371 198.764 33.8201 198.71 33.7211C198.476 33.3521 198.229 33.0641 197.968 32.8571C197.707 32.65 197.432 32.497 197.144 32.398C196.865 32.29 196.581 32.2225 196.293 32.1955C196.005 32.1685 195.722 32.155 195.443 32.155H194.43C194.196 32.155 194.079 32.326 194.079 32.668ZM194.079 31.696C194.079 31.813 194.183 31.8715 194.39 31.8715C194.507 31.8715 194.673 31.867 194.889 31.858C195.114 31.849 195.344 31.84 195.578 31.831C195.821 31.813 196.055 31.795 196.28 31.777C196.514 31.75 196.698 31.723 196.833 31.696C197.158 31.606 197.428 31.4755 197.644 31.3044C197.869 31.1334 198.049 30.9309 198.184 30.6969C198.319 30.4629 198.413 30.2064 198.467 29.9273C198.521 29.6393 198.548 29.3333 198.548 29.0093C198.548 28.5682 198.467 28.1722 198.305 27.8212C198.152 27.4702 197.927 27.1731 197.63 26.9301C197.342 26.6871 196.996 26.5026 196.59 26.3766C196.185 26.2416 195.74 26.1741 195.254 26.1741H194.849C194.633 26.1741 194.448 26.2101 194.295 26.2821C194.151 26.3451 194.079 26.4666 194.079 26.6466V31.696ZM203.922 32.641C203.922 32.11 203.971 31.6285 204.07 31.1964C204.169 30.7554 204.318 30.3459 204.516 29.9678C204.714 29.5898 204.957 29.2343 205.245 28.9013C205.542 28.5592 205.879 28.2262 206.257 27.9022C206.554 27.6502 206.874 27.4432 207.216 27.2812C207.558 27.1191 207.909 26.9931 208.269 26.9031C208.638 26.8041 209.016 26.7366 209.403 26.7006C209.79 26.6646 210.172 26.6466 210.55 26.6466C210.875 26.6466 211.217 26.6961 211.577 26.7951C211.946 26.8941 212.301 27.0246 212.643 27.1866C212.985 27.3397 213.3 27.5107 213.588 27.6997C213.876 27.8797 214.115 28.0552 214.304 28.2262C214.961 28.8473 215.469 29.5223 215.829 30.2514C216.189 30.9714 216.369 31.7635 216.369 32.6275C216.369 33.0956 216.333 33.5276 216.261 33.9236C216.198 34.3107 216.099 34.6752 215.964 35.0172C215.838 35.3592 215.676 35.6833 215.478 35.9893C215.289 36.2953 215.069 36.5968 214.817 36.8938C214.583 37.1549 214.304 37.4114 213.98 37.6634C213.665 37.9154 213.314 38.1404 212.927 38.3385C212.54 38.5365 212.121 38.6985 211.671 38.8245C211.23 38.9415 210.771 39 210.294 39C209.475 39 208.719 38.892 208.026 38.676C207.342 38.451 206.703 38.0594 206.109 37.5014C204.651 36.2323 203.922 34.6122 203.922 32.641ZM210.172 27.2271C209.767 27.2271 209.421 27.2722 209.133 27.3622C208.854 27.4432 208.602 27.5647 208.377 27.7267C208.161 27.8797 207.963 28.0687 207.783 28.2937C207.603 28.5187 207.418 28.7708 207.229 29.0498C206.887 29.5808 206.662 30.1479 206.554 30.7509C206.446 31.3449 206.392 31.948 206.392 32.56C206.392 33.2621 206.46 33.9641 206.595 34.6662C206.739 35.3592 207.013 36.0343 207.418 36.6913C207.526 36.8803 207.679 37.0784 207.877 37.2854C208.075 37.4834 208.291 37.6679 208.525 37.8389C208.759 38.0009 208.998 38.1404 209.241 38.2574C209.493 38.3655 209.727 38.4195 209.943 38.4195C210.366 38.4195 210.735 38.3475 211.05 38.2034C211.374 38.0594 211.662 37.8704 211.914 37.6364C212.166 37.3934 212.387 37.1189 212.576 36.8128C212.774 36.4978 212.963 36.1738 213.143 35.8408C213.368 35.3997 213.53 34.9272 213.629 34.4232C213.737 33.9101 213.791 33.3566 213.791 32.7625C213.791 32.3395 213.759 31.9435 213.696 31.5745C213.642 31.2054 213.552 30.8499 213.426 30.5079C213.309 30.1659 213.161 29.8328 212.981 29.5088C212.801 29.1758 212.589 28.8383 212.346 28.4962C212.103 28.1272 211.793 27.8257 211.415 27.5917C211.046 27.3487 210.631 27.2271 210.172 27.2271ZM222.269 26.8491C222.269 26.8851 222.274 26.9751 222.283 27.1191C222.292 27.2632 222.301 27.4162 222.31 27.5782C222.328 27.7402 222.341 27.8932 222.35 28.0372C222.359 28.1812 222.364 28.2712 222.364 28.3072V31.858C222.364 32.02 222.418 32.128 222.526 32.182C222.544 32.182 222.593 32.1865 222.674 32.1955C222.755 32.2045 222.841 32.2135 222.931 32.2225C223.03 32.2225 223.124 32.227 223.214 32.236C223.313 32.245 223.39 32.2495 223.444 32.2495C223.75 32.2495 224.038 32.2045 224.308 32.1145C224.758 32.0065 225.15 31.885 225.483 31.75C225.816 31.606 226.09 31.417 226.306 31.1829C226.531 30.9489 226.698 30.6519 226.806 30.2919C226.914 29.9318 226.968 29.4728 226.968 28.9148C226.968 28.1767 226.72 27.5602 226.225 27.0651C225.847 26.6781 225.406 26.4171 224.902 26.2821C224.398 26.1471 223.808 26.0796 223.133 26.0796C222.89 26.0796 222.683 26.1426 222.512 26.2686C222.35 26.3946 222.269 26.5881 222.269 26.8491ZM226.333 38.703C226.333 38.559 226.419 38.4645 226.59 38.4195H227.602C227.683 38.4015 227.764 38.3925 227.845 38.3925C227.926 38.3835 227.985 38.361 228.021 38.325C228.066 38.2979 228.088 38.2664 228.088 38.2304C228.088 38.1944 228.066 38.1404 228.021 38.0684C227.4 37.2314 226.774 36.3943 226.144 35.5573C225.523 34.7202 224.889 33.8741 224.24 33.0191C224.204 32.9831 224.159 32.9426 224.105 32.8976C224.06 32.8526 224.02 32.8301 223.984 32.8301L222.62 32.668H222.58C222.436 32.668 222.364 32.7535 222.364 32.9246V37.0559C222.364 37.4069 222.404 37.6769 222.485 37.8659C222.575 38.0459 222.683 38.1764 222.809 38.2574C222.935 38.3295 223.075 38.37 223.228 38.379C223.39 38.388 223.538 38.3925 223.673 38.3925C223.826 38.3925 223.957 38.406 224.065 38.433C224.182 38.46 224.24 38.5635 224.24 38.7435C224.24 38.8515 224.191 38.9235 224.092 38.9595C223.993 38.9865 223.894 39 223.795 39H218.395C218.314 39 218.237 38.9775 218.165 38.9325C218.102 38.8875 218.071 38.8245 218.071 38.7435C218.071 38.6445 218.134 38.559 218.26 38.487C218.35 38.46 218.498 38.442 218.705 38.433C218.921 38.415 219.137 38.397 219.353 38.379C219.569 38.361 219.758 38.334 219.92 38.2979C220.091 38.2529 220.177 38.1854 220.177 38.0954V37.6229C220.177 37.1999 220.172 36.8128 220.163 36.4618C220.154 36.1108 220.145 35.7553 220.136 35.3952C220.136 35.0262 220.132 34.6347 220.123 34.2207C220.114 33.8066 220.109 33.3296 220.109 32.7896V28.4962V26.7816C220.091 26.7456 220.078 26.6916 220.069 26.6196C220.069 26.5386 220.051 26.4756 220.015 26.4306C219.997 26.4126 219.974 26.3991 219.947 26.3901C219.929 26.3811 219.911 26.3721 219.893 26.3631C219.866 26.3541 219.848 26.3451 219.839 26.3361H218.584C218.485 26.3361 218.381 26.3136 218.273 26.2686C218.174 26.2236 218.107 26.1606 218.071 26.0796C218.062 26.0706 218.057 26.0571 218.057 26.0391C218.048 26.0301 218.044 26.0121 218.044 25.9851C218.044 25.9311 218.057 25.8681 218.084 25.796C218.12 25.724 218.179 25.688 218.26 25.688H225.078C225.699 25.688 226.279 25.7555 226.819 25.8906C227.368 26.0166 227.845 26.2236 228.25 26.5116C228.655 26.7996 228.975 27.1776 229.209 27.6457C229.443 28.1047 229.56 28.6673 229.56 29.3333C229.56 29.7743 229.528 30.1389 229.465 30.4269C229.402 30.7059 229.303 30.9444 229.168 31.1424C229.033 31.3404 228.862 31.516 228.655 31.669C228.448 31.822 228.205 31.993 227.926 32.182C227.872 32.227 227.791 32.272 227.683 32.317C227.584 32.362 227.485 32.407 227.386 32.452C227.287 32.488 227.202 32.5285 227.13 32.5735C227.058 32.6185 227.022 32.668 227.022 32.722C227.022 32.767 227.085 32.8886 227.211 33.0866C227.346 33.2756 227.508 33.5051 227.697 33.7751C227.895 34.0451 228.111 34.3332 228.345 34.6392C228.588 34.9362 228.813 35.2197 229.02 35.4897C229.236 35.7598 229.42 35.9938 229.573 36.1918C229.735 36.3808 229.839 36.4978 229.884 36.5428C230.127 36.7858 230.37 37.0154 230.613 37.2314C230.865 37.4384 231.126 37.6274 231.396 37.7984C231.675 37.9694 231.968 38.1179 232.274 38.2439C232.58 38.361 232.908 38.442 233.259 38.487C233.331 38.613 233.367 38.721 233.367 38.811C233.367 38.892 233.349 38.946 233.313 38.973C233.286 38.991 233.21 39 233.084 39H227.926H227.13C227.103 39 227.044 39 226.954 39C226.873 38.991 226.783 38.9775 226.684 38.9595C226.594 38.9415 226.513 38.9145 226.441 38.8785C226.369 38.8335 226.333 38.775 226.333 38.703Z" fill="white"/>
<path d="M33.2665 82.1806C26.1707 82.1806 20.4472 87.9042 20.4472 95C20.4472 102.096 26.1707 107.819 33.2665 107.819C40.3624 107.819 46.0859 102.096 46.0859 95C46.0859 87.9042 40.3624 82.1806 33.2665 82.1806ZM33.2665 103.334C28.681 103.334 24.9323 99.5967 24.9323 95C24.9323 90.4033 28.6699 86.6657 33.2665 86.6657C37.8632 86.6657 41.6008 90.4033 41.6008 95C41.6008 99.5967 37.852 103.334 33.2665 103.334ZM49.6003 81.6563C49.6003 83.3186 48.2615 84.6463 46.6103 84.6463C44.9479 84.6463 43.6202 83.3075 43.6202 81.6563C43.6202 80.005 44.959 78.6662 46.6103 78.6662C48.2615 78.6662 49.6003 80.005 49.6003 81.6563ZM58.0908 84.691C57.9011 80.6856 56.9863 77.1377 54.052 74.2145C51.1289 71.2914 47.5809 70.3765 43.5756 70.1757C39.4475 69.9414 27.0744 69.9414 22.9463 70.1757C18.9521 70.3654 15.4042 71.2803 12.4699 74.2034C9.53563 77.1265 8.63192 80.6744 8.43109 84.6798C8.1968 88.8079 8.1968 101.181 8.43109 105.309C8.62076 109.314 9.53563 112.862 12.4699 115.785C15.4042 118.709 18.941 119.623 22.9463 119.824C27.0744 120.059 39.4475 120.059 43.5756 119.824C47.5809 119.635 51.1289 118.72 54.052 115.785C56.9751 112.862 57.89 109.314 58.0908 105.309C58.3251 101.181 58.3251 88.819 58.0908 84.691ZM52.7578 109.738C51.8875 111.925 50.2028 113.61 48.0049 114.491C44.7136 115.797 36.9037 115.495 33.2665 115.495C29.6294 115.495 21.8083 115.785 18.5282 114.491C16.3414 113.621 14.6567 111.936 13.7753 109.738C12.4699 106.447 12.7712 98.6372 12.7712 95C12.7712 91.3628 12.4811 83.5418 13.7753 80.2616C14.6455 78.0749 16.3302 76.3902 18.5282 75.5088C21.8195 74.2034 29.6294 74.5046 33.2665 74.5046C36.9037 74.5046 44.7247 74.2145 48.0049 75.5088C50.1917 76.379 51.8764 78.0637 52.7578 80.2616C54.0631 83.5529 53.7619 91.3628 53.7619 95C53.7619 98.6372 54.0631 106.458 52.7578 109.738Z" fill="white"/>
<path d="M154.571 95.1521C154.571 81.2576 143.313 70 129.419 70C115.524 70 104.267 81.2576 104.267 95.1521C104.267 107.706 113.464 118.112 125.489 120V102.423H119.099V95.1521H125.489V89.6105C125.489 83.3073 129.241 79.8256 134.989 79.8256C137.741 79.8256 140.62 80.3164 140.62 80.3164V86.503H137.447C134.323 86.503 133.349 88.4422 133.349 90.431V95.1521H140.324L139.209 102.423H133.349V120C145.373 118.112 154.571 107.706 154.571 95.1521Z" fill="white"/>
<path d="M247.382 82.4609C247.415 83.0077 247.415 83.5547 247.415 84.1016C247.415 100.781 236.656 120 216.991 120C210.933 120 205.305 117.93 200.571 114.336C201.432 114.453 202.259 114.492 203.153 114.492C208.152 114.492 212.754 112.5 216.428 109.102C211.727 108.984 207.788 105.352 206.43 100.352C207.093 100.469 207.755 100.547 208.45 100.547C209.41 100.547 210.37 100.391 211.264 100.117C206.364 98.9452 202.689 93.8672 202.689 87.7344V87.5782C204.113 88.5157 205.768 89.1016 207.523 89.1796C204.643 86.914 202.756 83.0468 202.756 78.6718C202.756 76.3281 203.285 74.1796 204.212 72.3046C209.476 79.9609 217.388 84.9608 226.26 85.5078C226.095 84.5703 225.996 83.5938 225.996 82.6172C225.996 75.664 230.763 70 236.689 70C239.767 70 242.548 71.5234 244.502 73.9844C246.918 73.4375 249.235 72.3828 251.288 70.9375C250.493 73.8673 248.805 76.3282 246.587 77.8906C248.739 77.6173 250.825 76.914 252.745 75.9375C251.288 78.4374 249.467 80.6639 247.382 82.4609Z" fill="white"/>
</svg>
