<svg width="196" height="48" viewBox="0 0 196 48" fill="none" xmlns="http://www.w3.org/2000/svg">
<path d="M22.004 0.0376089C20.494 0.165703 18.8786 0.594818 17.5529 1.22248C17.1929 1.39541 16.4906 1.82452 15.9989 2.18318L15.1034 2.83006L14.287 2.66994C13.5583 2.52904 13.3037 2.50982 11.8024 2.50982C10.2748 2.50982 10.0641 2.52263 9.28274 2.67635C7.07034 3.11827 5.07743 4.07257 3.72541 5.35351C2.77724 6.25017 2.04856 7.46066 1.78518 8.57507C1.58325 9.40128 1.65349 10.9384 1.92565 11.6942C3.02307 14.7428 6.63138 17.0037 10.8103 17.2534L11.5303 17.2983L12.5223 20.9746C13.0754 22.9985 13.5319 24.6637 13.5407 24.6765C13.5583 24.6829 13.9358 24.574 14.3923 24.4331C15.9375 23.9464 18.3694 23.5172 20.5379 23.3443C21.9689 23.229 24.8924 23.2482 26.2883 23.3763C28.3427 23.5685 30.6078 24.004 32.03 24.4779C32.39 24.5996 32.7148 24.6765 32.7499 24.6509C32.7763 24.6188 33.2328 23.0113 33.7508 21.077C34.2688 19.1364 34.7253 17.4968 34.7692 17.42C34.8219 17.3047 34.9272 17.2791 35.5681 17.247C37.6576 17.1253 39.8173 16.408 41.4503 15.2872C42.4072 14.6275 42.9691 14.0831 43.5398 13.2889C44.4001 12.0784 44.725 10.9832 44.6547 9.61264C44.6284 9.1515 44.5494 8.57507 44.4704 8.3317C43.9173 6.49995 42.4423 4.86675 40.3704 3.79717C39.5539 3.37446 38.0966 2.8813 37.0694 2.68275C36.2792 2.52904 36.0685 2.50982 34.5409 2.50982C33.0133 2.50982 32.8026 2.52263 32.0388 2.67635L31.2048 2.84287L30.6078 2.36892C29.5104 1.50429 27.8423 0.716507 26.341 0.364249C25.0856 0.0632277 23.3034 -0.071271 22.004 0.0376089ZM24.5851 1.15843C25.9811 1.33136 27.3594 1.76688 28.4217 2.36892C29.0538 2.72118 29.9844 3.4385 30.362 3.86121L30.6517 4.18785L31.117 4.03414C31.3804 3.94448 31.9774 3.80357 32.4514 3.7075C33.6191 3.48334 35.2959 3.47053 36.4548 3.67548C38.079 3.97009 39.3783 4.49528 40.5899 5.3471C43.3027 7.26851 43.9963 10.1955 42.3106 12.6869C40.9498 14.7044 38.2282 16.043 35.1555 16.2159L34.4531 16.2543L33.742 15.9341C32.2144 15.2424 30.1337 14.5827 28.4305 14.256C26.7449 13.9358 25.7089 13.8461 23.6545 13.8461C21.6353 13.8461 20.3798 13.9486 18.9751 14.224C18.0972 14.3969 17.7373 14.5058 17.5529 14.6723C17.4475 14.7684 17.4475 14.794 17.5968 14.8709C17.7285 14.9413 17.9392 14.9542 18.5976 14.9157C19.0629 14.8837 20.5466 14.8645 21.8987 14.8645C24.032 14.8709 24.5061 14.8901 25.4894 15.0118C26.6571 15.1591 27.5701 15.3128 28.6588 15.5498C30.2566 15.8956 33.1801 16.8307 33.1801 16.9973C33.1801 17.0741 31.872 22.4284 31.7228 22.9728L31.6789 23.1458L31.2662 23.0305C31.038 22.9664 30.362 22.8255 29.7562 22.7167C25.1821 21.884 19.3614 21.9801 15.1561 22.9472C14.7698 23.0305 14.445 23.0945 14.4274 23.0753C14.4099 23.0625 13.9972 21.583 13.5144 19.7897C13.0315 17.9964 12.6189 16.4721 12.5926 16.3952C12.5574 16.2671 12.4784 16.2607 11.4776 16.2223C9.54612 16.1518 7.84293 15.6971 6.40311 14.8453C4.84039 13.9358 3.86588 12.815 3.31278 11.3227C3.10208 10.7271 3.0494 9.31802 3.22499 8.71598C3.83077 6.68569 5.5164 5.0653 7.9395 4.19426C9.28274 3.71391 10.2924 3.54098 11.8024 3.54098C12.8384 3.54098 13.1632 3.5666 13.8656 3.7075C14.3221 3.79717 14.9191 3.93807 15.1825 4.02133L15.6653 4.17504L16.0692 3.75233C17.6495 2.11273 20.3272 1.08157 23.0488 1.06877C23.4877 1.06236 24.1813 1.10719 24.5851 1.15843Z" fill="black"/>
<path d="M45.1731 4.99488C49.0975 9.61267 46.7885 15.5947 40.1337 18.0733C39.3612 18.3615 37.7897 18.765 37.1488 18.8418C36.7976 18.8803 36.7888 18.8931 36.6922 19.2133C36.6483 19.3926 36.1304 21.3141 35.5421 23.4788C34.9627 25.6436 34.4711 27.4305 34.4447 27.4434C34.4272 27.4562 34.234 27.3473 34.0145 27.2064C32.6011 26.2457 29.9497 25.5027 26.8155 25.1633C25.4898 25.0224 21.3372 25.0032 19.9237 25.1313C17.3513 25.3682 15.016 25.8742 13.3919 26.5531C12.3208 27.0014 12.3647 26.9566 12.5051 27.4818C12.5754 27.7252 12.6544 27.9942 12.6807 28.071C12.7246 28.2055 12.7597 28.1927 13.3655 27.8597C14.8053 27.0655 17.2548 26.3866 19.8359 26.0792C22.8999 25.7077 27.1842 25.8038 29.8092 26.2905C32.0216 26.7004 33.8916 27.3473 34.9451 28.0646C35.3578 28.3528 35.3666 28.3528 35.4192 28.2055C35.4456 28.1287 35.9723 26.188 36.5869 23.9016L37.7106 19.7513L38.5271 19.5976C40.4674 19.2389 42.2232 18.56 43.865 17.5353C45.4189 16.5682 46.9114 14.8261 47.5347 13.2569C48.2195 11.5341 48.1405 9.33086 47.3504 7.71048C46.8587 6.71134 45.893 5.46243 45.1292 4.84117C44.857 4.61701 44.857 4.62341 45.1731 4.99488Z" fill="black"/>
<path d="M2.80398 16.3693C4.26135 17.7335 6.56154 18.9056 8.84417 19.4436C9.3007 19.5461 9.67821 19.6357 9.69577 19.6357C9.70455 19.6357 9.66943 19.4756 9.61675 19.2707L9.52018 18.912L8.64225 18.7391C6.47375 18.31 4.83201 17.6503 3.24295 16.5807C2.63717 16.1772 2.55816 16.1324 2.80398 16.3693Z" fill="black"/>
<path d="M4.35834 29.4673C4.30566 29.5634 4.56026 29.6659 10.7497 31.978C13.0938 32.8554 13.2957 32.9451 13.3221 33.1052C13.3659 33.3614 13.1904 33.4895 12.8567 33.4511C12.7163 33.4318 10.5829 32.7914 8.12468 32.0356C4.93778 31.0493 3.62087 30.6714 3.55942 30.7227C3.48918 30.7675 3.51552 30.8123 3.62965 30.8764C3.72623 30.9276 5.70158 31.677 8.01933 32.548C10.3459 33.4126 12.3124 34.1684 12.4002 34.226C12.6812 34.4054 12.488 34.7512 12.1105 34.7512C12.0227 34.7512 9.942 34.13 7.48379 33.3742C5.03435 32.6184 2.96242 31.9908 2.89219 31.978C2.82195 31.9716 2.75172 32.01 2.74294 32.0612C2.72538 32.1317 3.98961 32.6313 7.15017 33.8161C9.74886 34.7832 11.6276 35.5262 11.6803 35.5966C11.8032 35.7567 11.5662 36.0321 11.3028 36.0321C11.2062 36.0321 9.09919 35.4109 6.63219 34.6487C4.16519 33.8866 2.10205 33.2525 2.04937 33.2333C1.9967 33.2205 1.92646 33.2525 1.90012 33.3101C1.85623 33.387 3.00632 33.8353 7.57158 35.4942C12.9709 37.4604 13.3308 37.5821 13.8664 37.6141C14.3931 37.6461 14.4809 37.6269 15.0252 37.422C15.8768 37.0889 16.509 36.9672 17.2025 37.0121C18.0102 37.0633 18.458 37.2042 18.5897 37.454C18.6862 37.6397 18.7038 37.6525 19.0637 37.6141C19.4061 37.5821 19.5993 37.6269 20.8811 38.0496L22.3209 38.5172L21.8029 38.7093C18.7126 39.8493 15.8593 40.6884 11.0921 41.8604C7.20285 42.8211 6.14933 43.1029 5.12214 43.468C3.2697 44.1277 3.0151 44.5248 3.79646 45.5944C4.27055 46.254 4.71829 46.3501 5.9474 46.0491C6.91313 45.8185 8.02811 45.3702 11.7154 43.7498C15.1745 42.2319 16.6933 41.5978 18.4404 40.9574C19.9066 40.4258 23.866 39.1064 24.0153 39.1064C24.1733 39.1064 27.887 40.3425 29.5375 40.9446C31.7587 41.7579 32.6278 42.123 38.3695 44.6657C40.0376 45.4022 41.6969 46.0235 42.3992 46.1772C43.4967 46.4142 43.962 46.2605 44.4712 45.4855C44.9453 44.7682 44.8575 44.3711 44.1376 43.9996C43.2333 43.5192 42.0042 43.1542 38.15 42.1999C34.691 41.348 32.2064 40.682 30.5647 40.1696C28.8791 39.6444 25.8063 38.5812 25.8063 38.53C25.8063 38.5044 26.4823 38.2674 27.3075 37.9984C28.5103 37.6077 28.8439 37.5244 28.9844 37.5757C29.2214 37.6717 29.4936 37.5821 29.5902 37.3771C29.6868 37.1786 30.2574 37.0121 31.0476 36.948C31.5041 36.9096 31.5041 36.9096 32.0308 37.2683C33.3038 38.1265 35.007 38.3442 37.2458 37.9279C40.5205 37.3195 43.163 35.8784 44.3746 34.0403C45.3754 32.516 44.8136 31.0749 42.9436 30.3448C42.0481 29.9989 41.2228 29.8708 39.8093 29.8644C37.9306 29.858 36.4995 30.127 34.6734 30.8251C31.7675 31.9331 30.3452 33.3037 30.4857 34.8281L30.5296 35.3212L30.073 35.6351C29.4585 36.0578 29.1775 36.1602 28.721 36.1154C28.3699 36.0834 28.3435 36.0898 28.2382 36.2819C28.1328 36.4613 27.887 36.5637 26.0697 37.2106L24.0241 37.9343L22.0224 37.2234C20.9162 36.8327 20.0119 36.4805 20.0119 36.442C20.0119 36.3972 19.9417 36.3011 19.8539 36.2243C19.7134 36.0962 19.652 36.0834 19.4237 36.141C19.1954 36.2051 19.0989 36.1859 18.7126 36.0321C17.8785 35.6799 17.3079 35.0394 17.1147 34.2388C16.9918 33.7393 16.7284 33.419 16.2192 33.1628C15.9383 33.0219 4.5866 29.3713 4.42857 29.3713C4.41979 29.3713 4.38468 29.4161 4.35834 29.4673ZM41.214 30.428C41.9866 30.5753 42.7416 30.8636 43.1718 31.1838L43.5493 31.4656L42.9084 31.3055C42.0481 31.0877 40.2746 31.0365 39.1245 31.1902C36.5873 31.536 33.8657 32.8042 32.9702 34.0467C32.3381 34.9177 32.3557 35.8208 32.9966 36.7623C33.3829 37.3195 33.2863 37.3259 32.5664 36.7879C31.6884 36.141 31.1353 34.9562 31.3285 34.1556C31.6182 32.9643 33.1195 31.8243 35.4723 31.0109C36.3503 30.7034 37.5355 30.4344 38.4046 30.332C39.0982 30.2551 40.5556 30.3063 41.214 30.428Z" fill="black"/>
<path d="M46.0422 30.2938C47.0869 31.3314 47.4468 32.4906 47.0606 33.5986C46.7094 34.617 46.0948 35.3791 44.8569 36.3142C43.5664 37.2941 42.109 38.0435 40.2478 38.6968C38.5797 39.286 36.6044 39.6767 35.3138 39.6895H34.7168L35.4191 39.8816L36.1215 40.0674L36.9994 39.9649C39.5806 39.6703 42.8026 38.4854 44.8306 37.0956C46.1826 36.1669 47.0079 35.3023 47.4556 34.3352C47.6663 33.8933 47.7015 33.7203 47.6927 33.0863C47.6927 32.4906 47.6576 32.2729 47.4995 31.9334C47.2361 31.3762 46.7094 30.7357 46.1651 30.3194L45.7261 29.98L46.0422 30.2938Z" fill="black"/>
<path d="M18.1413 32.5413C18.5539 32.932 18.9402 33.438 19.2651 34.008C19.4231 34.2898 19.6426 34.5652 19.7391 34.6165C19.985 34.7318 19.9762 34.6485 19.6513 34.1361C19.3265 33.5981 18.5452 32.7399 18.1589 32.4773L17.8691 32.2852L18.1413 32.5413Z" fill="black"/>
<path d="M0.0296303 34.4366C0.00329226 34.475 -0.00548709 34.5134 0.00329226 34.5199C0.231555 34.6672 10.2225 38.4908 11.4955 38.9135L12.3295 39.1953H13.5147C14.6121 39.2017 14.7614 39.1825 15.6042 38.9903C16.1046 38.8686 16.4997 38.7662 16.4821 38.747C16.4558 38.7341 15.8149 38.7534 15.0423 38.7918C14.2785 38.8302 13.225 38.8494 12.707 38.8366L11.7676 38.8174L9.28306 37.9079C7.15846 37.133 2.02254 35.1603 0.547612 34.5583C0.257893 34.4366 0.073527 34.3918 0.0296303 34.4366Z" fill="black"/>
<path d="M22.426 41.4438C20.6525 41.7769 18.8616 42.4622 15.5781 44.0698C11.5571 46.0296 9.73103 46.7853 7.81713 47.2657C5.7891 47.7781 4.41075 47.7845 3.16408 47.2913L2.84802 47.1632L3.19042 47.3938C3.82253 47.8165 4.39319 47.9638 5.45549 47.9958C7.94882 48.0663 10.3456 47.2593 16.1926 44.3964C18.8616 43.0898 20.8632 42.2956 22.4611 41.9178C23.6112 41.6424 24.9105 41.5911 25.9465 41.7897C27.7901 42.1355 29.9586 42.9489 34.9717 45.1714C40.1339 47.4642 41.2401 47.8549 42.7502 47.9254C43.7422 47.9702 44.4621 47.8741 45.2347 47.5795C46.5516 47.0736 47.254 46.0616 47.0433 44.9664C46.9555 44.4989 46.4814 43.7879 45.9897 43.3973C45.6649 43.1347 45.6473 43.1283 45.8229 43.3332C46.4638 44.0954 46.7009 44.7679 46.5253 45.4019C46.1741 46.7213 44.6728 47.5603 42.6711 47.5603C40.9592 47.5603 39.9671 47.2273 34.7785 44.9216C27.1141 41.5143 25.0685 40.9379 22.426 41.4438Z" fill="black"/>
<path d="M65.731 31V17.1818H74.3944V18.9766H67.8159V23.1868H73.9423V24.9748H67.8159V29.2053H74.4753V31H65.731ZM79.0347 17.1818V31H77.0173V17.1818H79.0347ZM86.939 31V17.1818H88.9564V22.3164H89.0779C89.1948 22.1005 89.3635 21.8509 89.5839 21.5675C89.8043 21.2841 90.1102 21.0367 90.5015 20.8253C90.8928 20.6094 91.4101 20.5014 92.0534 20.5014C92.89 20.5014 93.6367 20.7128 94.2934 21.1357C94.9501 21.5585 95.4652 22.168 95.8385 22.9641C96.2164 23.7603 96.4053 24.7184 96.4053 25.8384C96.4053 26.9585 96.2186 27.9188 95.8453 28.7195C95.4719 29.5156 94.9591 30.1296 94.3069 30.5614C93.6547 30.9888 92.9102 31.2024 92.0736 31.2024C91.4439 31.2024 90.9288 31.0967 90.5285 30.8853C90.1327 30.6739 89.8223 30.4265 89.5974 30.1431C89.3725 29.8597 89.1993 29.6078 89.0779 29.3874H88.9092V31H86.939ZM88.9159 25.8182C88.9159 26.5469 89.0216 27.1856 89.233 27.7344C89.4445 28.2831 89.7503 28.7127 90.1507 29.0231C90.551 29.329 91.0413 29.4819 91.6215 29.4819C92.2243 29.4819 92.7281 29.3222 93.1329 29.0028C93.5377 28.679 93.8436 28.2404 94.0505 27.6871C94.2619 27.1339 94.3676 26.5109 94.3676 25.8182C94.3676 25.1345 94.2642 24.5205 94.0573 23.9762C93.8548 23.4319 93.549 23.0024 93.1396 22.6875C92.7348 22.3726 92.2288 22.2152 91.6215 22.2152C91.0368 22.2152 90.542 22.3659 90.1372 22.6673C89.7368 22.9686 89.4332 23.3892 89.2263 23.929C89.0194 24.4687 88.9159 25.0985 88.9159 25.8182ZM105.236 26.7021V20.6364H107.26V31H105.276V29.2053H105.168C104.93 29.7585 104.547 30.2196 104.021 30.5884C103.499 30.9528 102.849 31.1349 102.071 31.1349C101.405 31.1349 100.816 30.9888 100.303 30.6964C99.7952 30.3995 99.3948 29.9609 99.1025 29.3807C98.8146 28.8004 98.6706 28.083 98.6706 27.2283V20.6364H100.688V26.9854C100.688 27.6916 100.884 28.2539 101.275 28.6722C101.666 29.0906 102.175 29.2997 102.8 29.2997C103.178 29.2997 103.553 29.2053 103.927 29.0163C104.305 28.8274 104.617 28.5418 104.865 28.1594C105.116 27.7771 105.24 27.2913 105.236 26.7021ZM114.437 31.2092C113.416 31.2092 112.537 30.991 111.799 30.5547C111.066 30.1139 110.499 29.4954 110.099 28.6992C109.703 27.8986 109.505 26.9607 109.505 25.8857C109.505 24.8241 109.703 23.8885 110.099 23.0788C110.499 22.2692 111.057 21.6372 111.772 21.1829C112.492 20.7286 113.333 20.5014 114.295 20.5014C114.88 20.5014 115.447 20.5981 115.996 20.7915C116.544 20.985 117.037 21.2886 117.473 21.7024C117.91 22.1162 118.254 22.6538 118.506 23.315C118.757 23.9717 118.883 24.7701 118.883 25.7102V26.4254H110.645V24.9141H116.907C116.907 24.3833 116.799 23.9132 116.583 23.5039C116.367 23.0901 116.063 22.764 115.672 22.5256C115.285 22.2872 114.831 22.168 114.309 22.168C113.742 22.168 113.247 22.3074 112.824 22.5863C112.406 22.8607 112.082 23.2205 111.853 23.6658C111.628 24.1067 111.516 24.5857 111.516 25.103V26.2837C111.516 26.9764 111.637 27.5657 111.88 28.0515C112.127 28.5373 112.471 28.9084 112.912 29.1648C113.353 29.4167 113.868 29.5426 114.457 29.5426C114.84 29.5426 115.188 29.4886 115.503 29.3807C115.818 29.2682 116.09 29.1018 116.32 28.8814C116.549 28.661 116.724 28.3888 116.846 28.065L118.755 28.4091C118.602 28.9714 118.328 29.4639 117.932 29.8867C117.541 30.305 117.048 30.6312 116.454 30.8651C115.865 31.0945 115.193 31.2092 114.437 31.2092ZM123.139 24.8466V31H121.122V20.6364H123.058V22.3232H123.186C123.425 21.7744 123.798 21.3336 124.306 21.0007C124.819 20.6679 125.465 20.5014 126.243 20.5014C126.949 20.5014 127.568 20.6499 128.098 20.9467C128.629 21.2391 129.041 21.6754 129.333 22.2557C129.625 22.8359 129.772 23.5534 129.772 24.408V31H127.754V24.6509C127.754 23.8997 127.559 23.3127 127.167 22.8899C126.776 22.4626 126.238 22.2489 125.555 22.2489C125.087 22.2489 124.671 22.3501 124.306 22.5526C123.947 22.755 123.661 23.0518 123.45 23.4432C123.243 23.83 123.139 24.2978 123.139 24.8466ZM145.272 23.1665L143.443 23.4904C143.367 23.2565 143.245 23.0339 143.079 22.8224C142.917 22.611 142.696 22.4379 142.418 22.3029C142.139 22.168 141.79 22.1005 141.372 22.1005C140.8 22.1005 140.324 22.2287 139.941 22.4851C139.559 22.737 139.368 23.0631 139.368 23.4634C139.368 23.8098 139.496 24.0887 139.752 24.3001C140.009 24.5115 140.423 24.6847 140.994 24.8196L142.64 25.1974C143.594 25.4179 144.304 25.7575 144.772 26.2163C145.24 26.6751 145.474 27.2711 145.474 28.0043C145.474 28.625 145.294 29.1783 144.934 29.6641C144.579 30.1454 144.082 30.5232 143.443 30.7976C142.809 31.072 142.073 31.2092 141.237 31.2092C140.076 31.2092 139.129 30.9618 138.396 30.467C137.663 29.9677 137.213 29.2592 137.047 28.3416L138.997 28.0447C139.118 28.553 139.368 28.9376 139.746 29.1985C140.123 29.4549 140.616 29.5831 141.223 29.5831C141.884 29.5831 142.413 29.4459 142.809 29.1715C143.205 28.8926 143.403 28.553 143.403 28.1527C143.403 27.8288 143.281 27.5567 143.038 27.3363C142.8 27.1159 142.433 26.9495 141.938 26.837L140.184 26.4524C139.217 26.232 138.502 25.8812 138.039 25.3999C137.58 24.9186 137.35 24.3091 137.35 23.5714C137.35 22.9596 137.521 22.4244 137.863 21.9656C138.205 21.5067 138.677 21.1491 139.28 20.8928C139.883 20.6319 140.573 20.5014 141.351 20.5014C142.472 20.5014 143.353 20.7443 143.996 21.2301C144.64 21.7114 145.065 22.3569 145.272 23.1665ZM150.708 31.2294C150.051 31.2294 149.458 31.108 148.927 30.8651C148.396 30.6177 147.975 30.2601 147.665 29.7923C147.359 29.3245 147.206 28.7509 147.206 28.0717C147.206 27.487 147.319 27.0057 147.544 26.6278C147.769 26.25 148.072 25.9509 148.455 25.7305C148.837 25.5101 149.264 25.3436 149.737 25.2312C150.209 25.1187 150.69 25.0333 151.18 24.9748C151.801 24.9028 152.305 24.8443 152.692 24.7994C153.079 24.7499 153.36 24.6712 153.535 24.5632C153.711 24.4553 153.798 24.2798 153.798 24.0369V23.9897C153.798 23.4004 153.632 22.9439 153.299 22.62C152.971 22.2962 152.48 22.1342 151.828 22.1342C151.149 22.1342 150.614 22.2849 150.222 22.5863C149.835 22.8832 149.568 23.2138 149.419 23.5781L147.523 23.1463C147.748 22.5166 148.077 22.0083 148.509 21.6214C148.945 21.2301 149.446 20.9467 150.013 20.7713C150.58 20.5914 151.176 20.5014 151.801 20.5014C152.215 20.5014 152.654 20.5509 153.117 20.6499C153.585 20.7443 154.021 20.9197 154.426 21.1761C154.835 21.4325 155.17 21.7991 155.431 22.2759C155.692 22.7482 155.822 23.3622 155.822 24.1179V31H153.852V29.5831H153.771C153.641 29.844 153.445 30.1004 153.184 30.3523C152.923 30.6042 152.588 30.8133 152.179 30.9798C151.77 31.1462 151.279 31.2294 150.708 31.2294ZM151.147 29.6101C151.704 29.6101 152.181 29.4999 152.577 29.2795C152.977 29.0591 153.281 28.7712 153.488 28.4158C153.699 28.056 153.805 27.6714 153.805 27.2621V25.9261C153.733 25.9981 153.594 26.0656 153.387 26.1286C153.184 26.187 152.953 26.2388 152.692 26.2837C152.431 26.3242 152.177 26.3625 151.929 26.3984C151.682 26.4299 151.475 26.4569 151.309 26.4794C150.917 26.5289 150.56 26.6121 150.236 26.729C149.916 26.846 149.66 27.0147 149.467 27.2351C149.278 27.451 149.183 27.7389 149.183 28.0987C149.183 28.598 149.368 28.9759 149.737 29.2322C150.105 29.4841 150.575 29.6101 151.147 29.6101ZM158.671 31V17.1818H160.689V22.3164H160.81C160.927 22.1005 161.096 21.8509 161.316 21.5675C161.537 21.2841 161.843 21.0367 162.234 20.8253C162.625 20.6094 163.143 20.5014 163.786 20.5014C164.622 20.5014 165.369 20.7128 166.026 21.1357C166.683 21.5585 167.198 22.168 167.571 22.9641C167.949 23.7603 168.138 24.7184 168.138 25.8384C168.138 26.9585 167.951 27.9188 167.578 28.7195C167.204 29.5156 166.692 30.1296 166.039 30.5614C165.387 30.9888 164.643 31.2024 163.806 31.2024C163.176 31.2024 162.661 31.0967 162.261 30.8853C161.865 30.6739 161.555 30.4265 161.33 30.1431C161.105 29.8597 160.932 29.6078 160.81 29.3874H160.642V31H158.671ZM160.648 25.8182C160.648 26.5469 160.754 27.1856 160.965 27.7344C161.177 28.2831 161.483 28.7127 161.883 29.0231C162.283 29.329 162.774 29.4819 163.354 29.4819C163.957 29.4819 164.46 29.3222 164.865 29.0028C165.27 28.679 165.576 28.2404 165.783 27.6871C165.994 27.1339 166.1 26.5109 166.1 25.8182C166.1 25.1345 165.997 24.5205 165.79 23.9762C165.587 23.4319 165.281 23.0024 164.872 22.6875C164.467 22.3726 163.961 22.2152 163.354 22.2152C162.769 22.2152 162.274 22.3659 161.87 22.6673C161.469 22.9686 161.166 23.3892 160.959 23.929C160.752 24.4687 160.648 25.0985 160.648 25.8182ZM174.768 31.2092C173.797 31.2092 172.949 30.9865 172.225 30.5412C171.501 30.0959 170.938 29.4729 170.538 28.6722C170.138 27.8716 169.938 26.936 169.938 25.8654C169.938 24.7904 170.138 23.8503 170.538 23.0451C170.938 22.2399 171.501 21.6147 172.225 21.1694C172.949 20.7241 173.797 20.5014 174.768 20.5014C175.74 20.5014 176.588 20.7241 177.312 21.1694C178.036 21.6147 178.599 22.2399 178.999 23.0451C179.399 23.8503 179.599 24.7904 179.599 25.8654C179.599 26.936 179.399 27.8716 178.999 28.6722C178.599 29.4729 178.036 30.0959 177.312 30.5412C176.588 30.9865 175.74 31.2092 174.768 31.2092ZM174.775 29.5156C175.405 29.5156 175.927 29.3492 176.341 29.0163C176.754 28.6835 177.06 28.2404 177.258 27.6871C177.461 27.1339 177.562 26.5244 177.562 25.8587C177.562 25.1974 177.461 24.5902 177.258 24.0369C177.06 23.4792 176.754 23.0316 176.341 22.6942C175.927 22.3569 175.405 22.1882 174.775 22.1882C174.141 22.1882 173.615 22.3569 173.196 22.6942C172.783 23.0316 172.474 23.4792 172.272 24.0369C172.074 24.5902 171.975 25.1974 171.975 25.8587C171.975 26.5244 172.074 27.1339 172.272 27.6871C172.474 28.2404 172.783 28.6835 173.196 29.0163C173.615 29.3492 174.141 29.5156 174.775 29.5156ZM181.851 31V20.6364H183.801V22.2827H183.909C184.098 21.7249 184.431 21.2863 184.908 20.967C185.389 20.6431 185.933 20.4812 186.541 20.4812C186.667 20.4812 186.815 20.4857 186.986 20.4947C187.161 20.5037 187.299 20.5149 187.397 20.5284V22.4581C187.316 22.4356 187.173 22.4109 186.966 22.3839C186.759 22.3524 186.552 22.3366 186.345 22.3366C185.868 22.3366 185.443 22.4379 185.07 22.6403C184.701 22.8382 184.408 23.1148 184.193 23.4702C183.977 23.821 183.869 24.2214 183.869 24.6712V31H181.851Z" fill="black"/>
</svg>
